<svg width="27" height="27" viewBox="0 0 27 27" fill="none" xmlns="http://www.w3.org/2000/svg">
<path d="M18.1303 3.16406L18.9213 0H8.07764L8.8686 3.16406H18.1303Z" fill="#2ECC71"/>
<path d="M6.30371 23.8359L8.05665 27H18.9432L20.6962 23.8359H6.30371Z" fill="#2ECC71"/>
<path d="M3.07324 17.9297C3.17792 18.168 3.29383 18.4034 3.42203 18.6348L5.42715 22.2539H21.5726L23.5776 18.6348C23.7058 18.4034 23.8217 18.168 23.9264 17.9297H3.07324Z" fill="#2ECC71"/>
<path d="M24.4413 16.3477C24.6276 15.4896 24.6737 14.6126 24.5806 13.7461C24.1469 13.8114 23.8726 13.9611 23.5419 14.1416C23.0324 14.4196 22.3984 14.7656 21.2302 14.7656C20.0621 14.7656 19.4281 14.4196 18.9186 14.1416C18.4776 13.901 18.1294 13.7109 17.3648 13.7109C16.6002 13.7109 16.252 13.901 15.8111 14.1416C15.3016 14.4196 14.6676 14.7656 13.4995 14.7656C12.3314 14.7656 11.6974 14.4196 11.1879 14.1416C10.747 13.901 10.3988 13.7109 9.63429 13.7109C8.86985 13.7109 8.52159 13.901 8.08073 14.1416C7.57132 14.4196 6.93734 14.7656 5.76928 14.7656C4.60121 14.7656 3.96719 14.4196 3.45777 14.1416C3.12702 13.9611 2.85275 13.8114 2.41922 13.7461C2.32614 14.6126 2.37218 15.4896 2.55849 16.3477H24.4413Z" fill="#2ECC71"/>
<path d="M4.21562 12.7529C4.65654 12.9935 5.00479 13.1836 5.76928 13.1836C6.53372 13.1836 6.88193 12.9935 7.32278 12.7529C7.8322 12.4749 8.46617 12.1289 9.63424 12.1289C10.8023 12.1289 11.4363 12.4749 11.9457 12.7529C12.3867 12.9935 12.7349 13.1836 13.4994 13.1836C14.2639 13.1836 14.6122 12.9935 15.0531 12.7529C15.5626 12.4749 16.1966 12.1289 17.3647 12.1289C18.5328 12.1289 19.1669 12.4749 19.6763 12.7529C20.1173 12.9935 20.4656 13.1836 21.2301 13.1836C21.9947 13.1836 22.343 12.9935 22.7839 12.7529C23.1535 12.5512 23.5956 12.3111 24.2599 12.1965C24.0696 11.5823 23.8062 10.9828 23.4685 10.4096C22.1339 8.1443 19.8844 6.6892 17.3248 6.3875L17.7352 4.74609H9.26452L9.67484 6.3875C7.11528 6.6892 4.86578 8.14435 3.53113 10.4096C3.19337 10.9828 2.92996 11.5823 2.73975 12.1965C3.40399 12.3111 3.84601 12.5512 4.21562 12.7529Z" fill="#2ECC71"/>
</svg>
