<svg width="27" height="27" viewBox="0 0 27 27" fill="none" xmlns="http://www.w3.org/2000/svg">
<g clip-path="url(#clip0_50_2154)">
<path d="M26.4547 3.23956C26.4042 3.11174 26.2878 3.0218 26.1514 3.00511C26.0153 2.98849 25.8804 3.04774 25.8006 3.15962C25.3268 3.82395 24.705 4.0454 23.9848 4.30185C23.404 4.50873 22.8034 4.72249 22.1543 5.1885C21.2363 5.84752 20.8165 6.74587 21.0258 7.59734L21.0035 7.62602C20.6201 7.06994 20.2031 6.55561 19.7629 6.09635C17.7037 3.94765 14.8263 2.65585 11.8682 2.55229C11.7379 2.54772 11.6055 2.54541 11.4746 2.54541C8.17158 2.54541 5.0101 4.02196 2.80083 6.59636C0.603131 9.15745 -0.370965 12.4914 0.128427 15.7433C0.170179 16.0151 0.22243 16.2898 0.28387 16.5598C1.09615 20.135 3.17078 22.8548 5.97588 24.0215C6.66734 24.3091 7.3648 24.4549 8.04864 24.4549C9.74764 24.4549 11.2316 23.5461 12.1202 21.9617C12.458 21.3588 12.6759 20.7354 12.7677 20.1085C12.8219 19.7384 12.7849 19.3687 12.749 19.0105C12.7121 18.6417 12.6772 18.2932 12.733 17.9423C12.8609 17.138 13.4228 16.6577 14.236 16.6577C14.4673 16.6577 14.7037 16.6958 14.9398 16.771C14.6634 17.2779 14.4124 17.7619 14.193 18.2105C13.7282 19.1613 13.4076 19.9487 13.2398 20.5506C13.1363 20.9218 12.8615 21.9083 13.5316 22.3734C13.7445 22.5211 14.0143 22.5732 14.2951 22.521C14.5482 22.474 15.3182 22.3309 17.5063 19.8399C18.0936 19.1714 18.7264 18.3978 19.3879 17.5402C21.086 16.9683 22.4074 15.545 22.757 13.9096C22.8445 13.5008 22.881 13.0633 22.8654 12.6088C23.5012 11.6263 24.0588 10.7095 24.62 9.72397C24.6307 9.70497 24.6413 9.68472 24.6518 9.66397C25.4663 9.4409 26.1678 8.80707 26.5795 7.92072C27.1807 6.62711 27.1364 4.96456 26.4547 3.23956ZM17.2749 9.36508C16.9803 9.83291 16.474 10.1122 15.9203 10.1122C15.6197 10.1122 15.3256 10.0272 15.0699 9.86616C14.7086 9.63853 14.4572 9.28383 14.3627 8.86738C14.2681 8.45093 14.3411 8.02248 14.5688 7.66103C14.8634 7.1932 15.3698 6.91387 15.9235 6.91387C16.2242 6.91387 16.5182 6.99894 16.7738 7.16001C17.1352 7.38752 17.3865 7.74222 17.4811 8.15873C17.5757 8.57524 17.5025 9.00363 17.2749 9.36508ZM19.3504 12.2622C20.1588 11.0711 21.0137 9.88717 21.8257 8.834C21.9574 8.95288 22.1046 9.06901 22.264 9.17964C22.5282 9.36296 22.8045 9.50471 23.0868 9.60178C22.4012 10.7742 21.6641 11.9357 20.7715 13.2503C19.305 15.4111 17.7802 17.4182 16.4779 18.902C15.7505 19.7308 15.1139 20.3707 14.6234 20.767C14.8128 20.1614 15.1746 19.3302 15.6782 18.3453C16.5786 16.5842 17.8828 14.4239 19.3504 12.2622ZM5.15704 12.252C4.85634 12.252 4.56227 12.1669 4.30657 12.0059C3.94518 11.7783 3.69399 11.4237 3.59936 11.0071C3.50473 10.5906 3.57798 10.1622 3.80568 9.80072C4.10013 9.33296 4.60652 9.05364 5.16016 9.05364C5.46093 9.05364 5.755 9.1387 6.01063 9.29977C6.75666 9.76966 6.98142 10.7589 6.51184 11.5048C6.21708 11.9727 5.71062 12.252 5.15704 12.252ZM3.48086 15.7731C3.77543 15.3052 4.28176 15.0258 4.83547 15.0258C5.1361 15.0258 5.43011 15.111 5.68587 15.272C6.04726 15.4995 6.29845 15.8542 6.39308 16.2707C6.48777 16.6871 6.41452 17.1155 6.18676 17.4771C5.89232 17.9448 5.38592 18.2241 4.83228 18.2241C4.53158 18.2241 4.23744 18.1391 3.98169 17.978C3.6203 17.7504 3.36916 17.3958 3.2746 16.9793C3.1801 16.5629 3.25341 16.1344 3.48086 15.7731ZM8.60178 6.27623C8.89636 5.8084 9.40275 5.52908 9.95639 5.52908C10.257 5.52908 10.551 5.61414 10.8067 5.77515C11.5528 6.24491 11.7775 7.2342 11.3079 7.98022C11.0132 8.44811 10.5068 8.72744 9.95314 8.72744C9.65251 8.72744 9.35844 8.64237 9.1028 8.4813C8.74148 8.2538 8.49034 7.89916 8.39571 7.48258C8.30096 7.06613 8.37421 6.63774 8.60178 6.27623Z" fill="#2ECC71"/>
</g>
<defs>
<clipPath id="clip0_50_2154">
<rect width="27" height="27" fill="white"/>
</clipPath>
</defs>
</svg>
