<svg width="27" height="27" viewBox="0 0 27 27" fill="none" xmlns="http://www.w3.org/2000/svg">
<g clip-path="url(#clip0_50_2091)">
<path d="M19.5044 14.7863L17.7041 16.5866L17.7041 16.5866L5.26824 4.1507L6.22398 3.19496L2.26103 0.000976562L0 2.26201L3.19399 6.2249L4.14977 5.26917L16.5856 17.705L14.7853 19.5054L17.3529 22.0729L22.0719 17.3538L19.5044 14.7863Z" fill="#2ECC71"/>
<path d="M23.1903 18.4722L18.4712 23.1912L21.3025 26.0226C21.9328 26.6528 22.7708 26.9999 23.6621 26.9999C24.5534 26.9999 25.3914 26.6528 26.0217 26.0226C27.3227 24.7215 27.3227 22.6046 26.0217 21.3035L23.1903 18.4722Z" fill="#2ECC71"/>
<path d="M13.665 17.0215L9.97899 13.3354L7.28032 16.0337C5.29809 15.4126 3.13498 15.9314 1.64316 17.4238C0.583755 18.4832 0 19.8916 0 21.3904C0 22.8885 0.583755 24.2975 1.64316 25.3569C2.73684 26.4506 4.17329 26.9975 5.60974 26.9975C7.04619 26.9975 8.48316 26.4506 9.57632 25.3569C11.0687 23.8651 11.5876 21.702 10.9664 19.7198L13.665 17.0215ZM6.89379 22.6738C6.18453 23.3831 5.03495 23.3831 4.32622 22.6738C3.61696 21.9651 3.61696 20.8155 4.32622 20.1063C5.03495 19.3975 6.18453 19.3975 6.89379 20.1063C7.60252 20.8155 7.60252 21.9652 6.89379 22.6738Z" fill="#2ECC71"/>
<path d="M26.6328 3.38354L26.1919 2.25769L23.3617 5.08787L22.219 4.78149L21.9126 3.63876L24.7428 0.80911L23.617 0.367734C21.6432 -0.405332 19.3999 0.0629376 17.9017 1.56108C16.5296 2.9332 16.0213 4.93125 16.5402 6.77427L13.3352 9.9796L17.0213 13.6656L20.2262 10.4603C20.7019 10.5943 21.187 10.6596 21.6695 10.6596C23.058 10.6591 24.4211 10.117 25.4394 9.09874C26.9376 7.60065 27.4058 5.35739 26.6328 3.38354Z" fill="#2ECC71"/>
</g>
<defs>
<clipPath id="clip0_50_2091">
<rect width="27" height="27" fill="white"/>
</clipPath>
</defs>
</svg>
