<svg width="27" height="27" viewBox="0 0 27 27" fill="none" xmlns="http://www.w3.org/2000/svg">
<g clip-path="url(#clip0_50_2109)">
<path d="M15.8836 3.06716C15.8836 2.31422 15.271 1.70166 14.5181 1.70166H12.4805C11.7276 1.70166 11.115 2.31422 11.115 3.06716V5.10867H15.8836V3.06716Z" fill="#2ECC71"/>
<path d="M13.6993 10.2444L21.6145 12.3125V7.20839C21.6145 6.92278 21.3821 6.69043 21.0965 6.69043H5.90223C5.61662 6.69043 5.38428 6.92278 5.38428 7.20839V12.3125L13.2994 10.2444C13.4305 10.2101 13.5682 10.2101 13.6993 10.2444Z" fill="#2ECC71"/>
<path d="M26.2087 23.7158C25.3357 23.7158 24.9418 23.5196 24.4432 23.2713C24.2091 23.1548 23.9623 23.0318 23.6677 22.9272C23.2587 22.7818 22.7575 22.6715 22.0708 22.6619L24.9669 15.3712C25.0311 15.198 24.9798 15.0539 24.9433 14.9831C24.9065 14.9117 24.8177 14.7849 24.6367 14.7376L13.4997 11.8276L2.36278 14.7376C2.18169 14.7849 2.09294 14.9117 2.05619 14.9831C2.01964 15.054 1.96833 15.1983 2.03261 15.3714L4.9223 22.662C4.2358 22.6723 3.73514 22.7833 3.32645 22.9292C3.03436 23.0334 2.78909 23.1555 2.55648 23.2714C2.05777 23.5196 1.66389 23.7158 0.790771 23.7158C0.35392 23.7158 -0.000244141 24.07 -0.000244141 24.5068C-0.000244141 24.9437 0.35392 25.2978 0.790771 25.2978C2.03594 25.2978 2.6871 24.9736 3.26159 24.6876C3.48545 24.5762 3.68842 24.4755 3.92282 24.398C4.2107 24.303 4.54604 24.2432 5.02729 24.2432C5.13714 24.2432 5.23934 24.2463 5.33521 24.2523C6.00114 24.2934 6.35704 24.4706 6.793 24.6877C7.36749 24.9737 8.01865 25.2979 9.26381 25.2979C10.5089 25.2979 11.16 24.9737 11.7346 24.6877C12.2332 24.4394 12.6271 24.2432 13.5001 24.2432C14.3731 24.2432 14.767 24.4393 15.2656 24.6877C15.8401 24.9737 16.4912 25.2979 17.7363 25.2979C18.9814 25.2979 19.6326 24.9737 20.207 24.6877C20.6444 24.4699 21.0012 24.2924 21.6712 24.2519C21.7651 24.2463 21.8652 24.2432 21.9726 24.2432C22.4486 24.2432 22.7817 24.3018 23.0675 24.3951C23.3058 24.4729 23.5113 24.5748 23.7381 24.6877C24.3126 24.9737 24.9637 25.2979 26.2088 25.2979C26.6456 25.2979 26.9998 24.9437 26.9998 24.5069C26.9998 24.07 26.6455 23.7158 26.2087 23.7158ZM6.18666 15.8757L13.2997 14.0172C13.4308 13.9829 13.5686 13.9829 13.6997 14.0172L20.8127 15.8757C21.2354 15.9862 21.4885 16.4184 21.3781 16.841C21.2852 17.1967 20.9645 17.4323 20.6134 17.4323C20.5472 17.4323 20.4799 17.4239 20.4129 17.4064L13.4997 15.6001L6.5866 17.4064C6.16393 17.5168 5.73172 17.2637 5.62129 16.841C5.51087 16.4184 5.76399 15.9862 6.18666 15.8757Z" fill="#2ECC71"/>
</g>
<defs>
<clipPath id="clip0_50_2109">
<rect width="27" height="27" fill="white"/>
</clipPath>
</defs>
</svg>
