<svg width="27" height="27" viewBox="0 0 27 27" fill="none" xmlns="http://www.w3.org/2000/svg">
<path d="M4.1303 3.18604C4.12957 3.18604 4.12875 3.18604 4.12802 3.18604C3.87266 3.18604 3.63248 3.28558 3.45111 3.46649C3.26775 3.6494 3.16675 3.89295 3.16675 4.15222V18.64C3.16675 19.1713 3.60066 19.6045 4.13412 19.6059C6.38303 19.6113 10.1509 20.08 12.7502 22.8001V7.63823C12.7502 7.45814 12.7042 7.28896 12.6173 7.14896C10.484 3.71331 6.38431 3.19131 4.1303 3.18604Z" fill="#2ECC71"/>
<path d="M23.8335 18.6401V4.15222C23.8335 3.89295 23.7325 3.6494 23.5492 3.46649C23.3678 3.28558 23.1275 3.18604 22.8724 3.18604C22.8715 3.18604 22.8707 3.18604 22.87 3.18604C20.6161 3.1914 16.5164 3.7134 14.383 7.14905C14.2962 7.28905 14.2502 7.45823 14.2502 7.63832V22.8001C16.8495 20.08 20.6174 19.6113 22.8663 19.6059C23.3996 19.6045 23.8335 19.1713 23.8335 18.6401Z" fill="#2ECC71"/>
<path d="M26.0336 6.52734H25.333V18.6402C25.333 19.9967 24.2278 21.1028 22.8693 21.1061C20.9617 21.1107 17.8164 21.4837 15.5889 23.5919C19.4414 22.6487 23.5027 23.2619 25.8173 23.7893C26.1063 23.8551 26.4049 23.7871 26.6365 23.6026C26.8672 23.4185 26.9996 23.1433 26.9996 22.8479V7.49335C26.9996 6.96071 26.5662 6.52734 26.0336 6.52734Z" fill="#2ECC71"/>
<path d="M1.66655 18.6402V6.52734H0.966003C0.433456 6.52734 0 6.96071 0 7.49335V22.8477C0 23.1431 0.132364 23.4182 0.363092 23.6023C0.594456 23.7868 0.892821 23.855 1.18228 23.789C3.49683 23.2615 7.55821 22.6484 11.4106 23.5917C9.18312 21.4835 6.03784 21.1106 4.13029 21.106C2.77183 21.1028 1.66655 19.9967 1.66655 18.6402Z" fill="#2ECC71"/>
</svg>
