<svg width="27" height="27" viewBox="0 0 27 27" fill="none" xmlns="http://www.w3.org/2000/svg">
<path d="M22.9367 13.7461L22.9362 13.7456L17.983 9.20547C17.4434 8.71088 16.8055 8.36188 16.1236 8.14013C17.2552 7.32201 18 5.99991 18 4.50004C18 2.01872 15.9813 0 13.5 0C11.0187 0 9.00002 2.01872 9.00002 4.49998C9.00002 5.99991 9.74489 7.32196 10.8764 8.14008C10.1945 8.36177 9.55663 8.71082 9.01705 9.20542L4.06329 13.7461C3.62602 14.1476 3.375 14.7184 3.375 15.3122C3.375 16.4839 4.3286 17.4375 5.54043 17.4375C6.09963 17.4375 6.64733 17.2107 7.04283 16.8151L9.0594 14.7986C9.1231 15.4852 9.2379 16.1504 9.4027 16.7893L7.3768 19.6018C6.58963 20.651 6.55008 22.0885 7.2774 23.18L9.2225 26.0975C9.59876 26.6627 10.2288 27 10.9127 27C12.029 27 12.9375 26.0914 12.9375 24.9752V24.7006C12.9375 24.243 12.7799 23.7936 12.4942 23.4355L10.9265 21.4766L11.8109 20.8136C12.881 21.5596 14.1192 21.5596 15.1892 20.8136L16.0731 21.4766L14.5059 23.436C14.2202 23.7936 14.0626 24.2429 14.0626 24.7005V24.9752C14.0626 26.0914 14.9711 26.9999 16.0923 26.9999C16.7713 26.9999 17.4013 26.6627 17.7771 26.098L19.7448 23.1465C20.4589 22.0759 20.4199 20.6641 19.6541 19.6424L17.5975 16.7887C17.7623 16.1504 17.8771 15.4851 17.9408 14.7985L19.9573 16.815C20.3528 17.2105 20.9005 17.4374 21.4998 17.4374C22.6715 17.4374 23.6251 16.4838 23.6251 15.3121C23.625 14.7184 23.374 14.1476 22.9367 13.7461ZM13.5 20.25C12.3267 20.25 11.2017 18.9201 10.5925 16.875H16.4076C15.7983 18.9201 14.6733 20.25 13.5 20.25Z" fill="#2ECC71"/>
</svg>
