<svg width="27" height="27" viewBox="0 0 27 27" fill="none" xmlns="http://www.w3.org/2000/svg">
<path d="M22.3593 18.5623C21.4981 18.5617 20.6625 18.8552 19.9909 19.3943L17.3639 16.7673C18.0841 15.9158 18.5014 14.8494 18.5506 13.7353L23.716 13.542C23.8248 13.8215 24.0289 14.0535 24.2922 14.197C24.5555 14.3405 24.8611 14.3862 25.1549 14.3261C25.4487 14.266 25.7118 14.104 25.8976 13.8686C26.0834 13.6332 26.18 13.3397 26.1702 13.04C26.1605 12.7402 26.0451 12.4536 25.8444 12.2308C25.6437 12.008 25.3706 11.8633 25.0735 11.8224C24.7765 11.7815 24.4745 11.847 24.221 12.0073C23.9676 12.1676 23.779 12.4123 23.6886 12.6983L18.5223 12.8894C18.4349 12.1631 18.191 11.4644 17.8074 10.8415C17.4238 10.2187 16.9096 9.68641 16.3003 9.28152L17.5187 7.06583C18.0199 7.22204 18.5613 7.18651 19.0378 6.96615C19.5143 6.74579 19.8919 6.3563 20.0975 5.87323C20.3031 5.39017 20.3219 4.84796 20.1503 4.3518C19.9788 3.85564 19.629 3.44089 19.169 3.18801C18.7089 2.93513 18.1713 2.86214 17.6604 2.98321C17.1496 3.10427 16.7019 3.41076 16.4043 3.84322C16.1066 4.27568 15.9802 4.80327 16.0496 5.32366C16.1189 5.84405 16.3791 6.32014 16.7796 6.65957L15.5604 8.87652C14.6912 8.48719 13.7295 8.35189 12.7867 8.48627C11.8438 8.62066 10.9583 9.01923 10.2325 9.6359L7.60548 7.00846C8.21215 6.24932 8.5051 5.2867 8.42416 4.3183C8.34323 3.34991 7.89455 2.44927 7.17029 1.80136C6.44603 1.15345 5.50117 0.807472 4.52978 0.834478C3.55838 0.861483 2.6342 1.25943 1.94706 1.94657C1.25991 2.63372 0.861972 3.5579 0.834966 4.52929C0.80796 5.50068 1.15394 6.44555 1.80185 7.16981C2.44975 7.89407 3.3504 8.34274 4.31879 8.42367C5.28718 8.50461 6.24981 8.21166 7.00895 7.60499L9.63596 10.2324C8.86109 11.1447 8.43622 12.3029 8.43742 13.4998C8.43864 13.8028 8.46688 14.1051 8.52179 14.4031L3.99212 15.6227C3.78779 15.2708 3.46241 15.0052 3.07667 14.8755C2.69093 14.7459 2.27119 14.761 1.89576 14.918C1.52034 15.0751 1.21487 15.3633 1.03636 15.729C0.857843 16.0947 0.818477 16.5129 0.925603 16.9055C1.03273 17.2981 1.27903 17.6383 1.61855 17.8627C1.95807 18.087 2.36762 18.1802 2.77078 18.1248C3.17394 18.0694 3.54318 17.8692 3.8096 17.5616C4.07601 17.254 4.22141 16.8599 4.21867 16.453C4.21867 16.4471 4.21867 16.442 4.21867 16.4361L8.74454 15.2177C9.13692 16.3012 9.88671 17.2187 10.8704 17.819L9.59968 20.36C8.98976 20.1711 8.33114 20.2183 7.75441 20.4923C7.17769 20.7663 6.72498 21.247 6.48606 21.8391C6.24713 22.4312 6.23945 23.0915 6.46452 23.689C6.68958 24.2865 7.13098 24.7776 7.70116 25.0649C8.27135 25.3522 8.9287 25.4148 9.54285 25.2402C10.157 25.0656 10.6831 24.6666 11.0169 24.1222C11.3506 23.5779 11.4676 22.9281 11.3447 22.3015C11.2217 21.675 10.8678 21.1175 10.3532 20.7396L11.6238 18.1987C12.4764 18.5414 13.4064 18.6448 14.3135 18.4977C15.2205 18.3505 16.0702 17.9585 16.7707 17.3638L19.3977 19.9908C18.861 20.6634 18.5686 21.4983 18.5685 22.3588C18.5684 23.2192 18.8606 24.0542 19.3972 24.7269C19.9337 25.3996 20.6829 25.8701 21.5219 26.0612C22.3608 26.2524 23.2399 26.1529 24.0149 25.7791C24.7899 25.4052 25.415 24.7792 25.7877 24.0037C26.1603 23.2281 26.2585 22.3489 26.0661 21.5102C25.8737 20.6715 25.4021 19.9231 24.7287 19.3875C24.0552 18.8519 23.2198 18.561 22.3593 18.5623ZM6.74992 6.74985H2.53117C2.53117 6.19041 2.7534 5.65388 3.14899 5.2583C3.54457 4.86271 4.0811 4.64048 4.64054 4.64048C4.39022 4.64048 4.14553 4.56625 3.9374 4.42718C3.72927 4.28811 3.56705 4.09045 3.47126 3.85918C3.37546 3.62792 3.3504 3.37345 3.39924 3.12794C3.44807 2.88243 3.56861 2.65692 3.74561 2.47992C3.92261 2.30292 4.14812 2.18238 4.39363 2.13354C4.63914 2.08471 4.89361 2.10977 5.12488 2.20557C5.35614 2.30136 5.5538 2.46358 5.69287 2.67171C5.83194 2.87984 5.90617 3.12453 5.90617 3.37485C5.90617 3.71051 5.77282 4.03243 5.53547 4.26978C5.29812 4.50713 4.97621 4.64048 4.64054 4.64048C5.19998 4.64048 5.73651 4.86271 6.13209 5.2583C6.52768 5.65388 6.74992 6.19041 6.74992 6.74985ZM13.4999 10.1248C13.8337 10.1248 14.1599 10.2238 14.4374 10.4092C14.7149 10.5947 14.9312 10.8582 15.059 11.1666C15.1867 11.4749 15.2201 11.8142 15.155 12.1416C15.0899 12.4689 14.9292 12.7696 14.6932 13.0056C14.4572 13.2416 14.1565 13.4023 13.8291 13.4674C13.5018 13.5325 13.1625 13.4991 12.8541 13.3714C12.5458 13.2437 12.2822 13.0274 12.0968 12.7499C11.9114 12.4724 11.8124 12.1461 11.8124 11.8123C11.8124 11.3648 11.9902 10.9356 12.3067 10.6191C12.6231 10.3026 13.0524 10.1248 13.4999 10.1248ZM10.9687 16.453C10.9687 15.7816 11.2354 15.1378 11.7101 14.6631C12.1848 14.1884 12.8286 13.9217 13.4999 13.9217C14.1712 13.9217 14.8151 14.1884 15.2898 14.6631C15.7645 15.1378 16.0312 15.7816 16.0312 16.453H10.9687ZM20.2499 24.4686C20.2499 23.9092 20.4722 23.3726 20.8677 22.977C21.2633 22.5815 21.7998 22.3592 22.3593 22.3592C22.109 22.3592 21.8643 22.285 21.6561 22.1459C21.448 22.0069 21.2858 21.8092 21.19 21.5779C21.0942 21.3467 21.0691 21.0922 21.118 20.8467C21.1668 20.6012 21.2874 20.3757 21.4644 20.1987C21.6414 20.0217 21.8669 19.9011 22.1124 19.8523C22.3579 19.8035 22.6124 19.8285 22.8436 19.9243C23.0749 20.0201 23.2726 20.1823 23.4116 20.3905C23.5507 20.5986 23.6249 20.8433 23.6249 21.0936C23.6249 21.4293 23.4916 21.7512 23.2542 21.9885C23.0169 22.2259 22.695 22.3592 22.3593 22.3592C22.9187 22.3592 23.4553 22.5815 23.8508 22.977C24.2464 23.3726 24.4687 23.9092 24.4687 24.4686H20.2499Z" fill="#2ECC71"/>
</svg>
