<svg width="27" height="19" viewBox="0 0 27 19" fill="none" xmlns="http://www.w3.org/2000/svg">
<path d="M24.5855 3.72042C21.0193 -2.13866 15.6471 1.93757 15.6471 1.93757C15.2987 2.2009 14.6562 2.41739 14.2197 2.4184L12.7808 2.41941C12.3442 2.41991 11.7018 2.20341 11.3539 1.94009C11.3539 1.94009 5.98116 -2.13715 2.41446 3.72193C-1.15124 9.579 0.285711 15.9577 0.285711 15.9577C0.537455 17.5195 1.3672 18.5617 2.93305 18.4308C4.49436 18.3004 7.88333 14.2247 7.88333 14.2247C8.16327 13.8888 8.74983 13.6144 9.18535 13.6144L17.8121 13.6129C18.2481 13.6129 18.8342 13.8873 19.1136 14.2232C19.1136 14.2232 22.5031 18.2989 24.0669 18.4293C25.6308 18.5602 26.4625 17.517 26.7127 15.9562C26.7122 15.9562 28.1517 9.57849 24.5855 3.72042ZM10.2578 8.48945H8.40797V10.2723C8.40797 10.2723 8.01625 10.5714 7.41006 10.5638C6.80486 10.5548 6.53097 10.2376 6.53097 10.2376V8.48995H4.78387C4.78387 8.48995 4.56586 8.2664 4.50745 7.67783C4.45005 7.08925 4.74862 6.61346 4.74862 6.61346H6.59894V4.76364C6.59894 4.76364 6.97957 4.55973 7.52686 4.57534C8.07466 4.59246 8.47594 4.79839 8.47594 4.79839L8.46838 6.61295H10.2155C10.2155 6.61295 10.5206 7.00467 10.5458 7.47794C10.5709 7.95173 10.2578 8.48945 10.2578 8.48945ZM18.7425 10.5215C17.9324 10.5215 17.2794 9.86649 17.2794 9.05738C17.2794 8.24677 17.9324 7.59324 18.7425 7.59324C19.5491 7.59324 20.2072 8.24677 20.2072 9.05738C20.2072 9.86699 19.5491 10.5215 18.7425 10.5215ZM18.7425 6.49312C17.9324 6.49312 17.2794 5.83859 17.2794 5.02949C17.2794 4.21887 17.9324 3.56535 18.7425 3.56535C19.5491 3.56535 20.2072 4.21887 20.2072 5.02949C20.2072 5.83909 19.5491 6.49312 18.7425 6.49312ZM22.3888 8.6556C21.5787 8.6556 20.9257 8.00107 20.9257 7.19146C20.9257 6.38135 21.5787 5.72732 22.3888 5.72732C23.1954 5.72732 23.8534 6.38135 23.8534 7.19146C23.8534 8.00107 23.1954 8.6556 22.3888 8.6556Z" fill="#2ECC71"/>
</svg>
