<svg width="25" height="25" viewBox="0 0 25 25" fill="none" xmlns="http://www.w3.org/2000/svg">
<g clip-path="url(#clip0_50_2086)">
<path d="M4.98056 6.45312C10.0252 6.45312 15.0034 6.45312 20.0171 6.45312C20.0302 6.67529 20.0528 6.86387 20.0528 7.05245C20.0552 12.7758 20.0468 18.4978 20.0682 24.2211C20.0706 24.8541 19.8901 25.0013 19.3318 24.9974C14.742 24.9729 10.1511 24.9794 5.5614 24.9897C5.13497 24.991 4.92948 24.9199 4.93067 24.3658C4.94967 18.5779 4.94136 12.7913 4.94374 7.00337C4.94374 6.83675 4.96512 6.66883 4.98056 6.45312Z" fill="#2ECC71"/>
<path d="M4.13349 6.41952C4.13349 7.15059 4.13349 7.81321 4.13349 8.47583C4.13111 13.7445 4.12042 19.0144 4.13943 24.2831C4.1418 24.8656 3.97907 25.0271 3.46594 24.9961C2.73662 24.9535 2.00254 25.0013 1.27085 24.9871C0.389488 24.9703 0.00463562 24.5492 0.0034478 23.5947C-0.00130347 18.3247 -0.00130347 13.056 0.00107216 7.78609C0.00107216 6.87289 0.403742 6.42856 1.22452 6.42081C2.17003 6.41306 3.11315 6.41952 4.13349 6.41952Z" fill="#2ECC71"/>
<path d="M20.9291 6.42732C21.9685 6.42732 22.9936 6.39762 24.0163 6.43895C24.6102 6.4622 24.9796 6.96724 24.9891 7.67377C25.0045 8.89955 24.9986 10.1253 24.9986 11.3511C24.9986 15.394 24.9974 19.4382 24.995 23.4811C24.995 24.5958 24.6363 24.982 23.597 24.9858C22.8451 24.9884 22.0932 24.9703 21.3425 24.991C20.9802 25.0013 20.8638 24.8567 20.865 24.4666C20.8733 18.5947 20.8709 12.7241 20.8733 6.85228C20.8721 6.72828 20.9042 6.60299 20.9291 6.42732Z" fill="#2ECC71"/>
<path d="M7.06152 5.53863C7.10072 2.56395 9.6771 -0.00644614 12.5005 1.21439e-05C15.3442 0.00647042 17.9182 2.58203 17.9289 5.53217C17.348 5.53217 16.7601 5.56834 16.1816 5.50505C16.0462 5.49084 15.8918 5.16018 15.8312 4.94705C15.0318 2.12479 11.8235 1.26067 9.99543 3.41903C9.61058 3.87369 9.38371 4.50789 9.15683 5.09301C9.04043 5.39526 8.94659 5.55672 8.62826 5.5438C8.11868 5.52184 7.60792 5.53863 7.06152 5.53863Z" fill="#2ECC71"/>
</g>
<defs>
<clipPath id="clip0_50_2086">
<rect width="25" height="25" fill="white"/>
</clipPath>
</defs>
</svg>
