<svg width="27" height="27" viewBox="0 0 27 27" fill="none" xmlns="http://www.w3.org/2000/svg">
<path d="M20.11 0H6.88916C5.58066 0 4.51611 1.06455 4.51611 2.37305V24.627C4.51611 25.9355 5.58066 27 6.88916 27H20.1099C21.4184 27 22.483 25.9355 22.483 24.627V2.37305C22.483 1.06455 21.4185 0 20.11 0ZM13.4996 3.82556C14.9419 3.82556 16.1111 4.99479 16.1111 6.43713C16.1111 7.87946 14.9419 9.04869 13.4996 9.04869C12.0572 9.04869 10.888 7.87946 10.888 6.43713C10.888 4.99479 12.0572 3.82556 13.4996 3.82556ZM13.4996 23.4924C10.0609 23.4924 7.26331 20.6949 7.26331 17.2562C7.26331 13.8176 10.0609 11.02 13.4996 11.02C16.9383 11.02 19.7358 13.8175 19.7358 17.2562C19.7358 20.6949 16.9383 23.4924 13.4996 23.4924Z" fill="#2ECC71"/>
<path d="M13.4996 14.6255C12.0489 14.6255 10.8687 15.8057 10.8687 17.2565C10.8687 18.7071 12.0489 19.8874 13.4996 19.8874C14.9504 19.8874 16.1306 18.7071 16.1306 17.2565C16.1306 15.8057 14.9504 14.6255 13.4996 14.6255Z" fill="#2ECC71"/>
</svg>
