<svg width="19" height="27" viewBox="0 0 19 27" fill="none" xmlns="http://www.w3.org/2000/svg">
<path d="M16.11 0H2.88916C1.58066 0 0.516113 1.06455 0.516113 2.37305V24.627C0.516113 25.9355 1.58066 27 2.88916 27H16.1099C17.4184 27 18.483 25.9355 18.483 24.627V2.37305C18.483 1.06455 17.4185 0 16.11 0ZM9.49957 3.82556C10.9419 3.82556 12.1111 4.99479 12.1111 6.43713C12.1111 7.87947 10.9419 9.04869 9.49957 9.04869C8.05723 9.04869 6.88801 7.87947 6.88801 6.43713C6.88801 4.99479 8.05723 3.82556 9.49957 3.82556ZM9.49957 23.4924C6.06087 23.4924 3.26331 20.6949 3.26331 17.2562C3.26331 13.8176 6.06087 11.02 9.49957 11.02C12.9383 11.02 15.7358 13.8175 15.7358 17.2562C15.7358 20.6949 12.9383 23.4924 9.49957 23.4924Z" fill="#2ECC71"/>
</svg>
