<svg width="27" height="27" viewBox="0 0 27 27" fill="none" xmlns="http://www.w3.org/2000/svg">
<path d="M26.9153 12.0007C26.8727 11.6213 26.43 11.3358 26.0473 11.3358C24.8103 11.3358 23.7124 10.6097 23.252 9.48597C22.782 8.33525 23.0853 6.9935 24.0069 6.148C24.2972 5.8826 24.3326 5.43819 24.0892 5.12969C23.4559 4.32565 22.7364 3.59925 21.9506 2.96977C21.6431 2.72316 21.1913 2.75749 20.9245 3.05279C20.1199 3.94394 18.6745 4.27509 17.5575 3.80908C16.3956 3.32018 15.6622 2.14237 15.7342 0.878151C15.7579 0.480798 15.4674 0.135523 15.0714 0.0894006C14.0629 -0.0273648 13.0456 -0.030751 12.0341 0.0814605C11.6432 0.124664 11.3529 0.461765 11.3659 0.854097C11.4097 2.10594 10.668 3.26297 9.51726 3.73435C8.41371 4.18518 6.97832 3.85648 6.17532 2.97315C5.90991 2.68217 5.46609 2.64644 5.15655 2.8878C4.34759 3.52265 3.61186 4.24952 2.97268 5.04702C2.72362 5.35704 2.7604 5.80635 3.05313 6.07269C3.99298 6.92379 4.29598 8.2771 3.80802 9.44125C3.34213 10.5511 2.18977 11.2661 0.870673 11.2661C0.442611 11.2523 0.13797 11.5399 0.0906801 11.9292C-0.0279535 12.943 -0.0292379 13.9767 0.0849586 14.9988C0.127578 15.3799 0.583313 15.663 0.970273 15.663C2.1461 15.6331 3.27429 16.3605 3.74824 17.5127C4.21985 18.6634 3.91626 20.0045 2.99312 20.8512C2.70436 21.1166 2.66746 21.56 2.91126 21.8681C3.53818 22.6671 4.25839 23.394 5.04655 24.0289C5.35598 24.278 5.80599 24.2431 6.0742 23.9475C6.88199 23.0542 8.32719 22.7237 9.43961 23.1906C10.6049 23.6782 11.338 24.8559 11.2664 26.1205C11.2429 26.5178 11.5342 26.8642 11.9287 26.9092C12.4448 26.9696 12.9636 26.9995 13.484 26.9995C13.9779 26.9995 14.472 26.9725 14.966 26.9175C15.3574 26.8743 15.6472 26.5369 15.634 26.1444C15.5888 24.8932 16.3322 23.736 17.4815 23.2656C18.5924 22.8118 20.0214 23.1439 20.8248 24.0259C21.0916 24.3163 21.5328 24.3516 21.8436 24.1112C22.6511 23.478 23.3855 22.7515 24.0275 21.9518C24.2768 21.6424 24.2414 21.1925 23.947 20.9257C23.0074 20.0752 22.7028 18.7213 23.1907 17.5583C23.6494 16.4634 24.7589 15.7283 25.9522 15.7283L26.1192 15.7327C26.5066 15.7641 26.8626 15.4658 26.9095 15.0705C27.0287 14.0557 27.03 13.0233 26.9153 12.0007ZM13.5002 21.2824C9.20176 21.2824 5.71737 17.798 5.71737 13.4997C5.71737 9.2013 9.20188 5.71691 13.5002 5.71691C17.7986 5.71691 21.2831 9.2013 21.2831 13.4997C21.2831 14.9586 20.8809 16.3233 20.1823 17.4902L16.7743 14.0822C17.0211 13.5005 17.1514 12.8698 17.1513 12.219C17.1513 10.9445 16.6549 9.74636 15.7536 8.84528C14.8525 7.9442 13.6544 7.44795 12.3801 7.44795C11.9549 7.44795 11.5316 7.50447 11.1221 7.61598C10.9427 7.6649 10.7961 7.81273 10.7483 7.99243C10.6995 8.17622 10.7545 8.36456 10.8981 8.5083C10.8981 8.5083 12.5806 10.2037 13.1435 10.7665C13.2025 10.8255 13.2024 10.9662 13.1941 11.0169L13.1888 11.0539C13.1321 11.6728 13.0227 12.4156 12.9324 12.7011C12.9203 12.7131 12.9088 12.7233 12.8965 12.7357C12.8835 12.7486 12.8716 12.7611 12.8591 12.774C12.5699 12.8668 11.8156 12.9775 11.1869 13.0338L11.187 13.0304L11.1588 13.0375C11.1537 13.0381 11.1444 13.0388 11.132 13.0388C11.0641 13.0388 10.9641 13.0198 10.8733 12.929C10.2873 12.3431 8.67083 10.7382 8.67083 10.7382C8.52581 10.5936 8.37705 10.5633 8.27792 10.5633C8.04684 10.5633 7.83993 10.7302 7.77477 10.9697C7.32978 12.6165 7.80151 14.3878 9.00618 15.5926C9.90749 16.4938 11.1057 16.99 12.3802 16.99C13.0311 16.99 13.6617 16.8598 14.2433 16.6131L17.6883 20.058C16.4788 20.8319 15.0426 21.2824 13.5002 21.2824Z" fill="#2ECC71"/>
</svg>
