<svg width="27" height="27" viewBox="0 0 27 27" fill="none" xmlns="http://www.w3.org/2000/svg">
<g clip-path="url(#clip0_50_2124)">
<path d="M25.8208 11.7199C26.1924 13.3506 26.7022 14.8614 26.8492 16.4144C27.0467 18.5043 26.9701 20.6268 26.9998 22.7343C27.0072 23.2738 26.6714 23.4127 26.2541 23.4141C25.2874 23.4168 24.3208 23.4195 23.3541 23.4195C15.8874 23.4182 8.42199 23.4182 0.955321 23.4141C0.142975 23.4141 -0.00887654 23.2765 0.018284 22.3951C0.089889 20.041 0.104704 17.6787 0.321988 15.3396C0.431864 14.1503 0.929396 13.0045 1.27384 11.758C1.05779 11.6027 0.798531 11.3793 0.510877 11.2199C-0.0236914 10.9215 -0.061963 10.4188 0.0503828 9.88617C0.162729 9.34941 0.601 9.36303 0.956556 9.42979C2.01829 9.62733 2.59236 9.15051 3.09853 8.09607C3.75779 6.72284 4.65409 5.48312 5.47755 4.20934C5.98495 3.426 6.70718 2.99687 7.58619 2.99551C11.5356 2.98461 15.4837 2.98325 19.4331 2.99551C20.3899 2.99823 21.1343 3.50638 21.6603 4.36465C22.6022 5.90544 23.5084 7.47348 24.4566 9.01019C24.5788 9.20909 24.8529 9.36303 25.0763 9.39982C25.459 9.46385 25.8652 9.36167 26.243 9.43796C26.5047 9.49109 26.9208 9.70225 26.9405 9.88617C26.9825 10.2622 26.8973 10.7472 26.6924 11.0428C26.459 11.3793 26.0393 11.5591 25.8208 11.7199ZM23.501 11.427C23.3516 11.1668 23.2615 10.9937 23.1578 10.8316C22.1232 9.21999 21.0726 7.62198 20.0603 5.99399C19.7701 5.52672 19.4393 5.35098 18.9343 5.3537C15.2936 5.37141 11.6516 5.37141 8.01088 5.35642C7.54792 5.35506 7.24792 5.53353 6.98742 5.94904C5.94545 7.60972 4.87878 9.25132 3.82446 10.9025C3.73434 11.0441 3.66643 11.2022 3.55038 11.4256C10.2158 11.427 16.8059 11.427 23.501 11.427ZM4.71829 18.6773C4.71829 18.6718 4.71829 18.6664 4.71952 18.6623C5.37508 18.7018 6.0294 18.7713 6.68495 18.774C7.23681 18.7767 7.62199 18.4688 7.7331 17.8394C7.84051 17.2318 7.6652 16.7428 7.13187 16.5098C5.85532 15.954 4.57384 15.4063 3.27878 14.9023C2.61582 14.6434 2.03927 15.0249 1.87384 15.7864C1.7689 16.2673 1.70347 16.7659 1.67754 17.2605C1.63927 17.973 2.05038 18.4757 2.69236 18.5356C3.36767 18.5983 4.04298 18.631 4.71829 18.6773ZM22.2405 18.6596C22.2405 18.6677 22.2418 18.6759 22.2418 18.6841C22.6504 18.6568 23.0603 18.635 23.4689 18.601C25.322 18.4416 25.5924 18.0302 25.2022 15.9853C25.0146 14.999 24.4356 14.6257 23.5677 14.9745C22.3739 15.454 21.1887 15.9567 20.0047 16.4649C19.3924 16.7278 19.1652 17.1896 19.2862 17.8435C19.4022 18.4688 19.8097 18.8026 20.4603 18.774C21.0541 18.7468 21.6479 18.6977 22.2405 18.6596ZM13.5751 21.0205C12.138 21.0205 10.7022 21.0191 9.2652 21.0218C8.89113 21.0218 8.55286 21.1894 8.64051 21.6349C8.68619 21.8638 9.01459 22.0913 9.25903 22.188C9.49483 22.282 9.78619 22.2112 10.0529 22.2112C12.5776 22.2084 15.1022 22.218 17.6257 22.1866C17.8788 22.1839 18.2356 21.9973 18.3553 21.7725C18.5627 21.3856 18.2393 21.0287 17.6998 21.0232C16.3257 21.0109 14.9504 21.0191 13.5751 21.0205Z" fill="#2ECC71"/>
<path d="M18.072 1.76694C15.0028 1.76694 12.03 1.76694 9.05591 1.76694C9.11393 0.429134 9.49788 0 10.6164 0C12.5263 0 14.4374 0 16.3473 0C17.4732 0 17.4732 0 17.8905 1.17296C17.9473 1.33781 17.993 1.50674 18.072 1.76694Z" fill="#2ECC71"/>
<path d="M4.24576 24.5998C4.29515 24.7224 4.30996 24.7428 4.3112 24.7633C4.4112 27.2686 4.42848 26.9811 2.52107 26.9852C1.07045 26.9879 1.10008 26.9852 1.06305 25.3709C1.04823 24.7265 1.23959 24.5562 1.79268 24.5875C2.60749 24.6338 3.42478 24.5998 4.24576 24.5998Z" fill="#2ECC71"/>
<path d="M24.3212 26.9863C24.3002 26.9849 24.2804 26.9849 24.2594 26.9863C22.5064 27.0312 22.6755 26.9522 22.7002 25.0395C22.7027 24.891 22.9434 24.6281 23.0817 24.6213C23.9002 24.5818 24.7199 24.594 25.5397 24.609C25.6656 24.6118 25.8965 24.7098 25.8965 24.7671C25.9076 25.3924 25.9718 26.0476 25.8187 26.6307C25.7644 26.8392 25.1656 26.8882 24.8101 26.9808C24.657 27.0203 24.4854 26.9863 24.3212 26.9863Z" fill="#2ECC71"/>
</g>
<defs>
<clipPath id="clip0_50_2124">
<rect width="27" height="27" fill="white"/>
</clipPath>
</defs>
</svg>
