<svg width="27" height="27" viewBox="0 0 27 27" fill="none" xmlns="http://www.w3.org/2000/svg">
<path d="M25.2045 13.8498C25.0959 13.6275 25.0959 13.3726 25.2045 13.1504L26.2115 11.0903C26.7722 9.94332 26.328 8.57619 25.2002 7.97781L23.1747 6.90309C22.9562 6.78718 22.8064 6.58089 22.7636 6.33731L22.3674 4.07876C22.1469 2.82127 20.9837 1.97626 19.7198 2.15508L17.4494 2.47623C17.2044 2.51082 16.962 2.43204 16.7843 2.26007L15.1363 0.665814C14.2187 -0.221912 12.7811 -0.221964 11.8636 0.665814L10.2155 2.26023C10.0377 2.43225 9.79538 2.51087 9.55038 2.47639L7.28002 2.15523C6.01572 1.97631 4.85293 2.82142 4.63235 4.07892L4.23621 6.33736C4.19344 6.58099 4.04362 6.78724 3.82515 6.9032L1.79963 7.97792C0.671861 8.57624 0.227629 9.94348 0.788298 11.0905L1.79525 13.1505C1.90389 13.3728 1.90389 13.6277 1.79525 13.8499L0.788245 15.9099C0.227576 17.0569 0.671808 18.4241 1.79958 19.0224L3.82509 20.0972C4.04362 20.2131 4.19344 20.4194 4.23621 20.6629L4.63235 22.9215C4.83316 24.0662 5.81475 24.8691 6.94289 24.869C7.054 24.869 7.16675 24.8612 7.28007 24.8451L9.55043 24.524C9.79528 24.4892 10.0377 24.5682 10.2156 24.7401L11.8636 26.3344C12.3225 26.7783 12.9111 27.0002 13.4999 27.0002C14.0886 27.0001 14.6776 26.7782 15.1362 26.3344L16.7843 24.7401C16.9621 24.5682 17.2045 24.4896 17.4494 24.524L19.7198 24.8451C20.9842 25.024 22.1469 24.1789 22.3674 22.9214L22.7636 20.663C22.8064 20.4194 22.9562 20.2131 23.1747 20.0972L25.2002 19.0224C26.328 18.4241 26.7722 17.0569 26.2115 15.9099L25.2045 13.8498ZM10.3854 6.49251C11.9596 6.49251 13.2403 7.77326 13.2403 9.34748C13.2403 10.9217 11.9596 12.2024 10.3854 12.2024C8.81115 12.2024 7.5304 10.9217 7.5304 9.34748C7.5304 7.77326 8.81115 6.49251 10.3854 6.49251ZM8.91177 19.1893C8.75974 19.3413 8.56046 19.4174 8.36123 19.4174C8.162 19.4174 7.96266 19.3414 7.81068 19.1893C7.50662 18.8852 7.50662 18.3922 7.81068 18.0881L18.088 7.81086C18.392 7.50679 18.885 7.50679 19.1891 7.81086C19.4932 8.11492 19.4932 8.60793 19.1891 8.912L8.91177 19.1893ZM16.6143 20.5077C15.0401 20.5077 13.7593 19.227 13.7593 17.6528C13.7593 16.0786 15.0401 14.7978 16.6143 14.7978C18.1885 14.7978 19.4693 16.0786 19.4693 17.6528C19.4693 19.227 18.1885 20.5077 16.6143 20.5077Z" fill="#2ECC71"/>
</svg>
