<svg width="229" height="72" viewBox="0 0 229 72" fill="none" xmlns="http://www.w3.org/2000/svg">
<circle cx="36" cy="36" r="36" fill="#EDEDEC"/>
<mask id="mask0_50_1172" style="mask-type:alpha" maskUnits="userSpaceOnUse" x="0" y="0" width="72" height="72">
<circle cx="36" cy="36" r="36" fill="white"/>
</mask>
<g mask="url(#mask0_50_1172)">
<path d="M61.2425 62.522C58.9636 56.5355 45.0376 53.6772 42.5979 51.9427C39.4649 49.7137 40.4645 42.3374 40.4645 42.3374L35.3399 42.4685L30.2154 42.3374C30.2154 42.3374 31.2112 49.7174 28.082 51.9427C25.6423 53.6772 11.7124 56.5355 9.4374 62.522C7.16236 68.5084 6.3006 73.7981 6.3006 73.7981H35.0527H35.6234H64.3755C64.3716 73.7981 63.5175 68.5084 61.2425 62.522Z" fill="#FFAC9D"/>
<path d="M29.2612 50.5678C31.6588 50.3281 34.0718 49.8523 36.1591 48.7097C37.6797 47.878 39.0508 46.8928 40.3262 45.7877C40.2496 43.8921 40.4603 42.3374 40.4603 42.3374L35.3357 42.4685L30.2111 42.3374C30.2111 42.3374 30.9196 47.5896 29.2612 50.5678Z" fill="#CC887F"/>
<path d="M61.6442 62.4395C59.8709 57.7755 51.0848 54.9995 46.056 53.1714C43.869 55.6401 39.9815 57.2847 35.5502 57.2847C31.1188 57.2847 27.2313 55.6401 25.0444 53.1714C20.0117 54.9995 11.2294 57.7792 9.45612 62.4395C7.16193 68.4709 6.30017 73.798 6.30017 73.798H35.2629H35.8374H64.8002C64.8002 73.798 63.9384 68.4709 61.6442 62.4395Z" fill="#FAF063"/>
<path d="M35.5308 59.1953C41.1533 59.1953 45.9753 57.0075 48.0436 53.8832C47.3388 53.6284 46.6686 53.3924 46.0558 53.1714C43.8688 55.6401 39.9813 57.2847 35.55 57.2847C31.1186 57.2847 27.2311 55.6401 25.0442 53.1714C24.4199 53.3962 23.742 53.6397 23.0258 53.8944C25.0978 57.0113 29.916 59.1953 35.5308 59.1953Z" fill="#F0BC27"/>
<path d="M26.734 30.8324C25.9068 28.3225 23.9458 28.9031 23.7619 28.9631C23.5704 28.9856 21.5443 29.2778 21.8929 31.8964C22.2452 34.5299 23.8079 35.9535 25.271 35.5339C26.7762 35.3017 27.5652 33.3611 26.734 30.8324Z" fill="#CC887F"/>
<path d="M43.3028 30.8324C44.13 28.3225 46.091 28.9031 46.2749 28.9631C46.4664 28.9856 48.4925 29.2778 48.1439 31.8964C47.7916 34.5299 46.2289 35.9535 44.7658 35.5339C43.2568 35.3017 42.4678 33.3611 43.3028 30.8324Z" fill="#CC887F"/>
<path d="M45.3939 26.8838C44.3674 15.8737 35.8111 16.4918 35.003 16.5743C34.1948 16.4918 25.6385 15.8737 24.6121 26.8838C23.5818 37.9576 28.626 45.1916 35.003 44.7907C41.38 45.1916 46.4241 37.9576 45.3939 26.8838Z" fill="#FFAC9D"/>
<path d="M36.2237 30.6421C36.2849 30.8182 36.3309 30.998 36.3807 31.1778C36.4343 31.3576 36.4764 31.5337 36.5186 31.7135C36.6028 32.0731 36.6756 32.4328 36.7407 32.7962C36.802 33.1595 36.8633 33.5192 36.9092 33.8863C36.959 34.2497 36.9973 34.6168 37.0318 34.9802L37.0395 35.0739L36.9782 35.1226C36.7522 35.3099 36.5224 35.4972 36.2888 35.677C36.0475 35.8493 35.8177 36.0366 35.5687 36.1977C35.7487 35.9617 35.9517 35.7482 36.1394 35.5234C36.3386 35.3061 36.5377 35.0888 36.7407 34.8791L36.6909 35.0252C36.6182 34.6655 36.5492 34.3021 36.4918 33.9388C36.4305 33.5754 36.3884 33.212 36.3424 32.8486C36.3003 32.4852 36.2658 32.1181 36.2466 31.751C36.2352 31.5674 36.2275 31.3838 36.2237 31.1965C36.2237 31.013 36.216 30.8294 36.2237 30.6421Z" fill="#CC887F"/>
<path d="M30.0454 37.8197L40.1988 37.7148C40.2027 37.7186 36.1428 41.6259 30.0454 37.8197Z" fill="white"/>
<path d="M32.6508 39.8168C32.6508 39.8168 32.758 39.8393 32.9457 39.888C33.1333 39.9292 33.3976 40.0303 33.7155 40.079C33.8764 40.1052 34.0449 40.1352 34.2249 40.1727C34.4011 40.2214 34.6002 40.2064 34.7956 40.2326C34.9947 40.2513 35.1977 40.2776 35.4084 40.2588C35.6152 40.2513 35.8297 40.2513 36.0365 40.2364C36.2433 40.2026 36.454 40.1727 36.657 40.139C36.8676 40.1202 37.0553 40.0341 37.2468 39.9891C37.4345 39.9292 37.626 39.8954 37.7907 39.8093C37.9554 39.7344 38.1162 39.6669 38.2656 39.6032C38.4188 39.547 38.5375 39.4646 38.6563 39.4009C38.7712 39.3335 38.8707 39.2773 38.9512 39.2286C39.1159 39.135 39.2193 39.0825 39.2193 39.0825C39.2193 39.0825 39.1427 39.1612 39.0048 39.2923C38.932 39.356 38.8478 39.4347 38.7482 39.5283C38.6486 39.6182 38.5414 39.7344 38.392 39.8093C38.2503 39.8992 38.0971 39.9928 37.9285 40.0903C37.7677 40.1989 37.5724 40.2626 37.3732 40.3375C37.2736 40.375 37.1702 40.4124 37.0706 40.4499L36.9136 40.5061L36.7489 40.536C36.5268 40.5735 36.3046 40.6147 36.0825 40.6522C35.8565 40.6634 35.6267 40.6597 35.4046 40.6634C35.1786 40.6784 34.9641 40.6297 34.7534 40.5997C34.5466 40.5623 34.3398 40.5473 34.156 40.4799C33.9683 40.4237 33.7959 40.3637 33.6389 40.3075C33.4742 40.2626 33.344 40.1914 33.2253 40.1277C33.1065 40.064 33.0031 40.0116 32.9189 39.9666C32.7465 39.873 32.6508 39.8168 32.6508 39.8168Z" fill="#CC887F"/>
<path d="M29.6777 30.8069C29.6777 31.6348 29.9917 32.3091 30.3786 32.3091C30.7654 32.3091 31.0795 31.6386 31.0795 30.8069C31.0795 29.979 30.7654 29.3047 30.3786 29.3047C29.9917 29.3047 29.6777 29.979 29.6777 30.8069Z" fill="#352C38"/>
<path d="M39.3369 30.8069C39.3369 31.6348 39.651 32.3091 40.0378 32.3091C40.4246 32.3091 40.7387 31.6386 40.7387 30.8069C40.7387 29.979 40.4246 29.3047 40.0378 29.3047C39.651 29.3084 39.3369 29.979 39.3369 30.8069Z" fill="#352C38"/>
<path d="M27.9552 28.353C27.9552 28.353 28.0778 27.9934 28.4569 27.5738C28.5565 27.4764 28.6561 27.3565 28.7901 27.2591C28.9165 27.1542 29.0583 27.0531 29.2191 26.9632C29.3723 26.862 29.56 26.8021 29.74 26.7271C29.9353 26.6822 30.1268 26.6148 30.3375 26.6073C30.4409 26.5998 30.5443 26.596 30.6477 26.5923C30.7511 26.5998 30.8545 26.6185 30.9541 26.6297C31.1609 26.641 31.341 26.7346 31.521 26.7946C31.701 26.8583 31.8427 26.9781 31.9882 27.0643C32.1376 27.1467 32.2295 27.2816 32.3368 27.379C32.4363 27.4801 32.5283 27.5738 32.5819 27.6749C32.647 27.7686 32.693 27.8585 32.7351 27.9259C32.8155 28.0683 32.85 28.1507 32.85 28.1507C32.85 28.1507 32.7619 28.1095 32.6202 28.0383C32.5512 28.0009 32.4632 27.9559 32.3751 27.9035C32.287 27.8435 32.1721 27.8023 32.0572 27.7499C31.9384 27.7049 31.8274 27.6262 31.6895 27.5925C31.5554 27.5588 31.4252 27.4914 31.2835 27.4689C31.1418 27.4502 31.0001 27.3977 30.8545 27.4052C30.7818 27.4015 30.709 27.3977 30.6362 27.3902L30.4141 27.409C30.2647 27.4015 30.1192 27.4577 29.966 27.4726C29.8204 27.5213 29.6711 27.5438 29.5293 27.6038C29.3876 27.6525 29.2498 27.7049 29.1195 27.7648C28.9855 27.8173 28.8667 27.8847 28.7442 27.9334C28.6293 27.9934 28.522 28.0496 28.4263 28.0983C28.3305 28.1507 28.2463 28.1957 28.1773 28.2331C28.0356 28.308 27.9552 28.353 27.9552 28.353Z" fill="#352C38"/>
<path d="M37.6791 28.353C37.6791 28.353 37.8016 27.9934 38.1808 27.5738C38.2804 27.4764 38.38 27.3565 38.514 27.2591C38.6404 27.1542 38.7821 27.0531 38.943 26.9632C39.0962 26.862 39.2839 26.8021 39.4639 26.7271C39.6592 26.6822 39.8507 26.6148 40.0614 26.6073C40.1648 26.5998 40.2682 26.596 40.3716 26.5923C40.475 26.5998 40.5784 26.6185 40.678 26.6297C40.8848 26.641 41.0648 26.7346 41.2448 26.7946C41.4249 26.8583 41.5666 26.9781 41.7121 27.0643C41.8615 27.1467 41.9534 27.2816 42.0606 27.379C42.1602 27.4801 42.2521 27.5738 42.3058 27.6749C42.3709 27.7686 42.4168 27.8585 42.459 27.9259C42.5394 28.0683 42.5739 28.1507 42.5739 28.1507C42.5739 28.1507 42.4858 28.1095 42.3441 28.0383C42.2751 28.0009 42.187 27.9559 42.0989 27.9035C42.0108 27.8435 41.8959 27.8023 41.781 27.7499C41.6623 27.7049 41.5512 27.6262 41.4134 27.5925C41.2793 27.5588 41.1491 27.4914 41.0074 27.4689C40.8657 27.4502 40.724 27.3977 40.5784 27.4052C40.5056 27.4015 40.4329 27.3977 40.3601 27.3902L40.138 27.409C39.9886 27.4015 39.843 27.4577 39.6898 27.4726C39.5443 27.5213 39.3949 27.5438 39.2532 27.6038C39.1115 27.6525 38.9736 27.7049 38.8434 27.7648C38.7094 27.8173 38.5906 27.8847 38.4681 27.9334C38.3532 27.9934 38.2459 28.0496 38.1502 28.0983C38.0544 28.1507 37.9702 28.1957 37.9012 28.2331C37.7595 28.308 37.6791 28.353 37.6791 28.353Z" fill="#352C38"/>
<path d="M24.6459 32.3124C24.6459 32.3124 21.9649 21.4484 23.4969 18.3278C25.0289 15.2072 26.8175 16.2037 26.8175 16.2037C26.8175 16.2037 29.2419 9.71155 34.3512 10.959C39.4567 12.2065 42.3943 14.4542 45.0753 12.2065C45.0753 12.2065 45.0753 14.2033 43.5433 15.0799C43.5433 15.0799 46.7337 15.0799 48.013 12.0829C48.013 12.0829 49.9203 18.4889 45.7073 20.7366C45.7073 20.7366 46.0213 28.7423 45.7149 31.6868L44.5659 31.5632C44.5659 31.5632 43.9263 27.3187 43.5433 21.9467C43.5433 21.9467 36.9059 25.4419 28.8628 19.3243C28.8628 19.3243 30.0118 23.4451 25.4157 26.0675L25.7987 31.8104L24.6459 32.3124Z" fill="#965450"/>
<path d="M41.0001 22.733C39.1005 22.6056 37.1969 22.1973 35.6534 21.6166C32.1987 20.3204 29.2343 16.4731 28.9968 12.7456C27.5299 14.2928 26.8137 16.2034 26.8137 16.2034C26.8137 16.2034 25.0251 15.2031 23.493 18.3275C21.961 21.4481 24.6421 32.3121 24.6421 32.3121L25.7911 31.8138L25.4081 26.0709C30.0041 23.4485 28.8551 19.3277 28.8551 19.3277C33.8763 23.1376 38.3459 23.2163 41.0001 22.733Z" fill="#76413B"/>
</g>
<path d="M110.154 16.454L106.518 29H104.682L101.766 18.902L98.742 29L96.924 29.018L93.414 16.454H95.16L97.896 27.092L100.92 16.454H102.756L105.636 27.056L108.39 16.454H110.154ZM120.947 23.69C120.947 24.002 120.929 24.332 120.893 24.68H113.009C113.069 25.652 113.399 26.414 113.999 26.966C114.611 27.506 115.349 27.776 116.213 27.776C116.921 27.776 117.509 27.614 117.977 27.29C118.457 26.954 118.793 26.51 118.985 25.958H120.749C120.485 26.906 119.957 27.68 119.165 28.28C118.373 28.868 117.389 29.162 116.213 29.162C115.277 29.162 114.437 28.952 113.693 28.532C112.961 28.112 112.385 27.518 111.965 26.75C111.545 25.97 111.335 25.07 111.335 24.05C111.335 23.03 111.539 22.136 111.947 21.368C112.355 20.6 112.925 20.012 113.657 19.604C114.401 19.184 115.253 18.974 116.213 18.974C117.149 18.974 117.977 19.178 118.697 19.586C119.417 19.994 119.969 20.558 120.353 21.278C120.749 21.986 120.947 22.79 120.947 23.69ZM119.255 23.348C119.255 22.724 119.117 22.19 118.841 21.746C118.565 21.29 118.187 20.948 117.707 20.72C117.239 20.48 116.717 20.36 116.141 20.36C115.313 20.36 114.605 20.624 114.017 21.152C113.441 21.68 113.111 22.412 113.027 23.348H119.255ZM124.747 15.68V29H123.109V15.68H124.747ZM126.926 24.05C126.926 23.03 127.13 22.142 127.538 21.386C127.946 20.618 128.51 20.024 129.23 19.604C129.962 19.184 130.796 18.974 131.732 18.974C132.944 18.974 133.94 19.268 134.72 19.856C135.512 20.444 136.034 21.26 136.286 22.304H134.522C134.354 21.704 134.024 21.23 133.532 20.882C133.052 20.534 132.452 20.36 131.732 20.36C130.796 20.36 130.04 20.684 129.464 21.332C128.888 21.968 128.6 22.874 128.6 24.05C128.6 25.238 128.888 26.156 129.464 26.804C130.04 27.452 130.796 27.776 131.732 27.776C132.452 27.776 133.052 27.608 133.532 27.272C134.012 26.936 134.342 26.456 134.522 25.832H136.286C136.022 26.84 135.494 27.65 134.702 28.262C133.91 28.862 132.92 29.162 131.732 29.162C130.796 29.162 129.962 28.952 129.23 28.532C128.51 28.112 127.946 27.518 127.538 26.75C127.13 25.982 126.926 25.082 126.926 24.05ZM142.774 29.162C141.85 29.162 141.01 28.952 140.254 28.532C139.51 28.112 138.922 27.518 138.49 26.75C138.07 25.97 137.86 25.07 137.86 24.05C137.86 23.042 138.076 22.154 138.508 21.386C138.952 20.606 139.552 20.012 140.308 19.604C141.064 19.184 141.91 18.974 142.846 18.974C143.782 18.974 144.628 19.184 145.384 19.604C146.14 20.012 146.734 20.6 147.166 21.368C147.61 22.136 147.832 23.03 147.832 24.05C147.832 25.07 147.604 25.97 147.148 26.75C146.704 27.518 146.098 28.112 145.33 28.532C144.562 28.952 143.71 29.162 142.774 29.162ZM142.774 27.722C143.362 27.722 143.914 27.584 144.43 27.308C144.946 27.032 145.36 26.618 145.672 26.066C145.996 25.514 146.158 24.842 146.158 24.05C146.158 23.258 146.002 22.586 145.69 22.034C145.378 21.482 144.97 21.074 144.466 20.81C143.962 20.534 143.416 20.396 142.828 20.396C142.228 20.396 141.676 20.534 141.172 20.81C140.68 21.074 140.284 21.482 139.984 22.034C139.684 22.586 139.534 23.258 139.534 24.05C139.534 24.854 139.678 25.532 139.966 26.084C140.266 26.636 140.662 27.05 141.154 27.326C141.646 27.59 142.186 27.722 142.774 27.722ZM161.848 18.956C162.616 18.956 163.3 19.118 163.9 19.442C164.5 19.754 164.974 20.228 165.322 20.864C165.67 21.5 165.844 22.274 165.844 23.186V29H164.224V23.42C164.224 22.436 163.978 21.686 163.486 21.17C163.006 20.642 162.352 20.378 161.524 20.378C160.672 20.378 159.994 20.654 159.49 21.206C158.986 21.746 158.734 22.532 158.734 23.564V29H157.114V23.42C157.114 22.436 156.868 21.686 156.376 21.17C155.896 20.642 155.242 20.378 154.414 20.378C153.562 20.378 152.884 20.654 152.38 21.206C151.876 21.746 151.624 22.532 151.624 23.564V29H149.986V19.136H151.624V20.558C151.948 20.042 152.38 19.646 152.92 19.37C153.472 19.094 154.078 18.956 154.738 18.956C155.566 18.956 156.298 19.142 156.934 19.514C157.57 19.886 158.044 20.432 158.356 21.152C158.632 20.456 159.088 19.916 159.724 19.532C160.36 19.148 161.068 18.956 161.848 18.956ZM177.531 23.69C177.531 24.002 177.513 24.332 177.477 24.68H169.593C169.653 25.652 169.983 26.414 170.583 26.966C171.195 27.506 171.933 27.776 172.797 27.776C173.505 27.776 174.093 27.614 174.561 27.29C175.041 26.954 175.377 26.51 175.569 25.958H177.333C177.069 26.906 176.541 27.68 175.749 28.28C174.957 28.868 173.973 29.162 172.797 29.162C171.861 29.162 171.021 28.952 170.277 28.532C169.545 28.112 168.969 27.518 168.549 26.75C168.129 25.97 167.919 25.07 167.919 24.05C167.919 23.03 168.123 22.136 168.531 21.368C168.939 20.6 169.509 20.012 170.241 19.604C170.985 19.184 171.837 18.974 172.797 18.974C173.733 18.974 174.561 19.178 175.281 19.586C176.001 19.994 176.553 20.558 176.937 21.278C177.333 21.986 177.531 22.79 177.531 23.69ZM175.839 23.348C175.839 22.724 175.701 22.19 175.425 21.746C175.149 21.29 174.771 20.948 174.291 20.72C173.823 20.48 173.301 20.36 172.725 20.36C171.897 20.36 171.189 20.624 170.601 21.152C170.025 21.68 169.695 22.412 169.611 23.348H175.839ZM181.817 16.454L181.619 25.454H180.251L180.053 16.454H181.817ZM181.007 29.108C180.695 29.108 180.431 29 180.215 28.784C179.999 28.568 179.891 28.304 179.891 27.992C179.891 27.68 179.999 27.416 180.215 27.2C180.431 26.984 180.695 26.876 181.007 26.876C181.307 26.876 181.559 26.984 181.763 27.2C181.979 27.416 182.087 27.68 182.087 27.992C182.087 28.304 181.979 28.568 181.763 28.784C181.559 29 181.307 29.108 181.007 29.108Z" fill="white"/>
<path d="M95.646 53.712H98.936V55H94.05V45.27H95.646V53.712ZM103.617 55.126C102.889 55.126 102.231 54.9627 101.643 54.636C101.055 54.3 100.593 53.8333 100.257 53.236C99.9207 52.6293 99.7527 51.9293 99.7527 51.136C99.7527 50.352 99.9254 49.6567 100.271 49.05C100.616 48.4433 101.087 47.9767 101.685 47.65C102.282 47.3233 102.949 47.16 103.687 47.16C104.424 47.16 105.091 47.3233 105.689 47.65C106.286 47.9767 106.757 48.4433 107.103 49.05C107.448 49.6567 107.621 50.352 107.621 51.136C107.621 51.92 107.443 52.6153 107.089 53.222C106.734 53.8287 106.249 54.3 105.633 54.636C105.026 54.9627 104.354 55.126 103.617 55.126ZM103.617 53.74C104.027 53.74 104.41 53.642 104.765 53.446C105.129 53.25 105.423 52.956 105.647 52.564C105.871 52.172 105.983 51.696 105.983 51.136C105.983 50.576 105.875 50.1047 105.661 49.722C105.446 49.33 105.161 49.036 104.807 48.84C104.452 48.644 104.069 48.546 103.659 48.546C103.248 48.546 102.865 48.644 102.511 48.84C102.165 49.036 101.89 49.33 101.685 49.722C101.479 50.1047 101.377 50.576 101.377 51.136C101.377 51.9667 101.587 52.6107 102.007 53.068C102.436 53.516 102.973 53.74 103.617 53.74ZM112.306 47.16C112.904 47.16 113.431 47.2813 113.888 47.524C114.355 47.7573 114.719 48.0513 114.98 48.406V47.286H116.59V55.126C116.59 55.8353 116.441 56.4653 116.142 57.016C115.844 57.576 115.41 58.0147 114.84 58.332C114.28 58.6493 113.608 58.808 112.824 58.808C111.779 58.808 110.911 58.5607 110.22 58.066C109.53 57.5807 109.138 56.918 109.044 56.078H110.626C110.748 56.4793 111.004 56.8013 111.396 57.044C111.798 57.296 112.274 57.422 112.824 57.422C113.468 57.422 113.986 57.226 114.378 56.834C114.78 56.442 114.98 55.8727 114.98 55.126V53.838C114.71 54.202 114.341 54.51 113.874 54.762C113.417 55.0047 112.894 55.126 112.306 55.126C111.634 55.126 111.018 54.958 110.458 54.622C109.908 54.2767 109.469 53.8007 109.142 53.194C108.825 52.578 108.666 51.8827 108.666 51.108C108.666 50.3333 108.825 49.6473 109.142 49.05C109.469 48.4527 109.908 47.9907 110.458 47.664C111.018 47.328 111.634 47.16 112.306 47.16ZM114.98 51.136C114.98 50.604 114.868 50.142 114.644 49.75C114.43 49.358 114.145 49.0593 113.79 48.854C113.436 48.6487 113.053 48.546 112.642 48.546C112.232 48.546 111.849 48.6487 111.494 48.854C111.14 49.05 110.85 49.344 110.626 49.736C110.412 50.1187 110.304 50.576 110.304 51.108C110.304 51.64 110.412 52.1067 110.626 52.508C110.85 52.9093 111.14 53.2173 111.494 53.432C111.858 53.6373 112.241 53.74 112.642 53.74C113.053 53.74 113.436 53.6373 113.79 53.432C114.145 53.2267 114.43 52.928 114.644 52.536C114.868 52.1347 114.98 51.668 114.98 51.136ZM119.499 46.264C119.209 46.264 118.967 46.166 118.771 45.97C118.575 45.774 118.477 45.5313 118.477 45.242C118.477 44.9527 118.575 44.71 118.771 44.514C118.967 44.318 119.209 44.22 119.499 44.22C119.779 44.22 120.017 44.318 120.213 44.514C120.409 44.71 120.507 44.9527 120.507 45.242C120.507 45.5313 120.409 45.774 120.213 45.97C120.017 46.166 119.779 46.264 119.499 46.264ZM120.283 47.286V55H118.687V47.286H120.283ZM126.27 47.16C126.877 47.16 127.418 47.286 127.894 47.538C128.379 47.79 128.757 48.1633 129.028 48.658C129.299 49.1527 129.434 49.75 129.434 50.45V55H127.852V50.688C127.852 49.9973 127.679 49.47 127.334 49.106C126.989 48.7327 126.517 48.546 125.92 48.546C125.323 48.546 124.847 48.7327 124.492 49.106C124.147 49.47 123.974 49.9973 123.974 50.688V55H122.378V47.286H123.974V48.168C124.235 47.8507 124.567 47.6033 124.968 47.426C125.379 47.2487 125.813 47.16 126.27 47.16ZM138.453 55.126C137.725 55.126 137.067 54.9627 136.479 54.636C135.891 54.3 135.429 53.8333 135.093 53.236C134.757 52.6293 134.589 51.9293 134.589 51.136C134.589 50.352 134.761 49.6567 135.107 49.05C135.452 48.4433 135.923 47.9767 136.521 47.65C137.118 47.3233 137.785 47.16 138.523 47.16C139.26 47.16 139.927 47.3233 140.525 47.65C141.122 47.9767 141.593 48.4433 141.939 49.05C142.284 49.6567 142.457 50.352 142.457 51.136C142.457 51.92 142.279 52.6153 141.925 53.222C141.57 53.8287 141.085 54.3 140.469 54.636C139.862 54.9627 139.19 55.126 138.453 55.126ZM138.453 53.74C138.863 53.74 139.246 53.642 139.601 53.446C139.965 53.25 140.259 52.956 140.483 52.564C140.707 52.172 140.819 51.696 140.819 51.136C140.819 50.576 140.711 50.1047 140.497 49.722C140.282 49.33 139.997 49.036 139.643 48.84C139.288 48.644 138.905 48.546 138.495 48.546C138.084 48.546 137.701 48.644 137.347 48.84C137.001 49.036 136.726 49.33 136.521 49.722C136.315 50.1047 136.213 50.576 136.213 51.136C136.213 51.9667 136.423 52.6107 136.843 53.068C137.272 53.516 137.809 53.74 138.453 53.74ZM145.63 48.406C145.864 48.014 146.172 47.7107 146.554 47.496C146.946 47.272 147.408 47.16 147.94 47.16V48.812H147.534C146.909 48.812 146.433 48.9707 146.106 49.288C145.789 49.6053 145.63 50.156 145.63 50.94V55H144.034V47.286H145.63V48.406ZM158.098 55L155.858 51.108H154.64V55H153.044V45.27H156.404C157.151 45.27 157.781 45.4007 158.294 45.662C158.817 45.9233 159.204 46.2733 159.456 46.712C159.717 47.1507 159.848 47.6407 159.848 48.182C159.848 48.8167 159.661 49.3953 159.288 49.918C158.924 50.4313 158.359 50.7813 157.594 50.968L160.002 55H158.098ZM154.64 49.834H156.404C157.001 49.834 157.449 49.6847 157.748 49.386C158.056 49.0873 158.21 48.686 158.21 48.182C158.21 47.678 158.061 47.286 157.762 47.006C157.463 46.7167 157.011 46.572 156.404 46.572H154.64V49.834ZM168.96 50.954C168.96 51.2433 168.941 51.5047 168.904 51.738H163.01C163.057 52.354 163.285 52.8487 163.696 53.222C164.107 53.5953 164.611 53.782 165.208 53.782C166.067 53.782 166.673 53.4227 167.028 52.704H168.75C168.517 53.4133 168.092 53.9967 167.476 54.454C166.869 54.902 166.113 55.126 165.208 55.126C164.471 55.126 163.808 54.9627 163.22 54.636C162.641 54.3 162.184 53.8333 161.848 53.236C161.521 52.6293 161.358 51.9293 161.358 51.136C161.358 50.3427 161.517 49.6473 161.834 49.05C162.161 48.4433 162.613 47.9767 163.192 47.65C163.78 47.3233 164.452 47.16 165.208 47.16C165.936 47.16 166.585 47.3187 167.154 47.636C167.723 47.9533 168.167 48.4013 168.484 48.98C168.801 49.5493 168.96 50.2073 168.96 50.954ZM167.294 50.45C167.285 49.862 167.075 49.3907 166.664 49.036C166.253 48.6813 165.745 48.504 165.138 48.504C164.587 48.504 164.116 48.6813 163.724 49.036C163.332 49.3813 163.099 49.8527 163.024 50.45H167.294ZM173.638 47.16C174.236 47.16 174.763 47.2813 175.22 47.524C175.687 47.7573 176.051 48.0513 176.312 48.406V47.286H177.922V55.126C177.922 55.8353 177.773 56.4653 177.474 57.016C177.176 57.576 176.742 58.0147 176.172 58.332C175.612 58.6493 174.94 58.808 174.156 58.808C173.111 58.808 172.243 58.5607 171.552 58.066C170.862 57.5807 170.47 56.918 170.376 56.078H171.958C172.08 56.4793 172.336 56.8013 172.728 57.044C173.13 57.296 173.606 57.422 174.156 57.422C174.8 57.422 175.318 57.226 175.71 56.834C176.112 56.442 176.312 55.8727 176.312 55.126V53.838C176.042 54.202 175.673 54.51 175.206 54.762C174.749 55.0047 174.226 55.126 173.638 55.126C172.966 55.126 172.35 54.958 171.79 54.622C171.24 54.2767 170.801 53.8007 170.474 53.194C170.157 52.578 169.998 51.8827 169.998 51.108C169.998 50.3333 170.157 49.6473 170.474 49.05C170.801 48.4527 171.24 47.9907 171.79 47.664C172.35 47.328 172.966 47.16 173.638 47.16ZM176.312 51.136C176.312 50.604 176.2 50.142 175.976 49.75C175.762 49.358 175.477 49.0593 175.122 48.854C174.768 48.6487 174.385 48.546 173.974 48.546C173.564 48.546 173.181 48.6487 172.826 48.854C172.472 49.05 172.182 49.344 171.958 49.736C171.744 50.1187 171.636 50.576 171.636 51.108C171.636 51.64 171.744 52.1067 171.958 52.508C172.182 52.9093 172.472 53.2173 172.826 53.432C173.19 53.6373 173.573 53.74 173.974 53.74C174.385 53.74 174.768 53.6373 175.122 53.432C175.477 53.2267 175.762 52.928 175.976 52.536C176.2 52.1347 176.312 51.668 176.312 51.136ZM180.831 46.264C180.541 46.264 180.299 46.166 180.103 45.97C179.907 45.774 179.809 45.5313 179.809 45.242C179.809 44.9527 179.907 44.71 180.103 44.514C180.299 44.318 180.541 44.22 180.831 44.22C181.111 44.22 181.349 44.318 181.545 44.514C181.741 44.71 181.839 44.9527 181.839 45.242C181.839 45.5313 181.741 45.774 181.545 45.97C181.349 46.166 181.111 46.264 180.831 46.264ZM181.615 47.286V55H180.019V47.286H181.615ZM186.51 55.126C185.903 55.126 185.357 55.0187 184.872 54.804C184.396 54.58 184.018 54.2813 183.738 53.908C183.458 53.5253 183.309 53.1007 183.29 52.634H184.942C184.97 52.9607 185.124 53.236 185.404 53.46C185.693 53.6747 186.053 53.782 186.482 53.782C186.93 53.782 187.275 53.698 187.518 53.53C187.77 53.3527 187.896 53.1287 187.896 52.858C187.896 52.5687 187.756 52.354 187.476 52.214C187.205 52.074 186.771 51.92 186.174 51.752C185.595 51.5933 185.124 51.4393 184.76 51.29C184.396 51.1407 184.079 50.912 183.808 50.604C183.547 50.296 183.416 49.89 183.416 49.386C183.416 48.9753 183.537 48.602 183.78 48.266C184.023 47.9207 184.368 47.65 184.816 47.454C185.273 47.258 185.796 47.16 186.384 47.16C187.261 47.16 187.966 47.384 188.498 47.832C189.039 48.2707 189.329 48.8727 189.366 49.638H187.77C187.742 49.2927 187.602 49.0173 187.35 48.812C187.098 48.6067 186.757 48.504 186.328 48.504C185.908 48.504 185.586 48.5833 185.362 48.742C185.138 48.9007 185.026 49.1107 185.026 49.372C185.026 49.5773 185.101 49.75 185.25 49.89C185.399 50.03 185.581 50.142 185.796 50.226C186.011 50.3007 186.328 50.3987 186.748 50.52C187.308 50.6693 187.765 50.8233 188.12 50.982C188.484 51.1313 188.797 51.3553 189.058 51.654C189.319 51.9527 189.455 52.3493 189.464 52.844C189.464 53.2827 189.343 53.6747 189.1 54.02C188.857 54.3653 188.512 54.636 188.064 54.832C187.625 55.028 187.107 55.126 186.51 55.126ZM193.051 48.588V52.858C193.051 53.1473 193.116 53.3573 193.247 53.488C193.387 53.6093 193.62 53.67 193.947 53.67H194.927V55H193.667C192.948 55 192.397 54.832 192.015 54.496C191.632 54.16 191.441 53.614 191.441 52.858V48.588H190.531V47.286H191.441V45.368H193.051V47.286H194.927V48.588H193.051ZM203.468 50.954C203.468 51.2433 203.449 51.5047 203.412 51.738H197.518C197.564 52.354 197.793 52.8487 198.204 53.222C198.614 53.5953 199.118 53.782 199.716 53.782C200.574 53.782 201.181 53.4227 201.536 52.704H203.258C203.024 53.4133 202.6 53.9967 201.984 54.454C201.377 54.902 200.621 55.126 199.716 55.126C198.978 55.126 198.316 54.9627 197.728 54.636C197.149 54.3 196.692 53.8333 196.356 53.236C196.029 52.6293 195.866 51.9293 195.866 51.136C195.866 50.3427 196.024 49.6473 196.342 49.05C196.668 48.4433 197.121 47.9767 197.7 47.65C198.288 47.3233 198.96 47.16 199.716 47.16C200.444 47.16 201.092 47.3187 201.662 47.636C202.231 47.9533 202.674 48.4013 202.992 48.98C203.309 49.5493 203.468 50.2073 203.468 50.954ZM201.802 50.45C201.792 49.862 201.582 49.3907 201.172 49.036C200.761 48.6813 200.252 48.504 199.646 48.504C199.095 48.504 198.624 48.6813 198.232 49.036C197.84 49.3813 197.606 49.8527 197.532 50.45H201.802ZM206.634 48.406C206.868 48.014 207.176 47.7107 207.558 47.496C207.95 47.272 208.412 47.16 208.944 47.16V48.812H208.538C207.913 48.812 207.437 48.9707 207.11 49.288C206.793 49.6053 206.634 50.156 206.634 50.94V55H205.038V47.286H206.634V48.406Z" fill="white" fill-opacity="0.8"/>
<g opacity="0.8">
<path fill-rule="evenodd" clip-rule="evenodd" d="M217.163 50.52C216.93 50.5521 216.75 50.7547 216.75 50.9999C216.75 51.2674 216.964 51.4843 217.227 51.4843H225.617L222.586 54.5474L222.54 54.6017C222.401 54.791 222.416 55.0601 222.585 55.2324C222.771 55.422 223.073 55.4226 223.26 55.2338L227.103 51.3497C227.126 51.3275 227.146 51.3029 227.165 51.2765C227.295 51.0873 227.276 50.825 227.11 50.6565L223.26 46.7661L223.206 46.7193C223.019 46.5791 222.754 46.5953 222.585 46.7676C222.399 46.9572 222.399 47.2638 222.586 47.4526L225.617 50.5156H217.227L217.163 50.52Z" fill="white"/>
</g>
</svg>
