<svg width="21" height="21" viewBox="0 0 21 21" fill="none" xmlns="http://www.w3.org/2000/svg">
<path fill-rule="evenodd" clip-rule="evenodd" d="M7.76802 5.58124C7.76802 7.21458 6.4215 8.53844 4.75901 8.53844C3.09749 8.53844 1.75 7.21458 1.75 5.58124C1.75 3.94886 3.09749 2.625 4.75901 2.625C6.4215 2.625 7.76802 3.94886 7.76802 5.58124ZM17.9316 4.28602C18.6589 4.28602 19.25 4.86676 19.25 5.58123C19.25 6.29665 18.6589 6.87739 17.9316 6.87739H12.1781C11.4499 6.87739 10.8588 6.29665 10.8588 5.58123C10.8588 4.86676 11.4499 4.28602 12.1781 4.28602H17.9316ZM3.0693 13.9632H8.82288C9.55107 13.9632 10.1422 14.5439 10.1422 15.2594C10.1422 15.9738 9.55107 16.5555 8.82288 16.5555H3.0693C2.34111 16.5555 1.75 15.9738 1.75 15.2594C1.75 14.5439 2.34111 13.9632 3.0693 13.9632ZM16.241 18.1806C17.9035 18.1806 19.25 16.8567 19.25 15.2243C19.25 13.591 17.9035 12.2671 16.241 12.2671C14.5795 12.2671 13.232 13.591 13.232 15.2243C13.232 16.8567 14.5795 18.1806 16.241 18.1806Z" fill="white"/>
</svg>
