<svg width="32" height="32" viewBox="0 0 32 32" fill="none" xmlns="http://www.w3.org/2000/svg">
<g clip-path="url(#clip0_50_782)">
<path d="M14.125 24.375H17.875V32H14.125V24.375Z" fill="#2ECC71"/>
<path d="M7.564 32H12.2501V22.5H19.7501V32H24.4584V0H7.564V32ZM20.6876 3.75H22.5626V5.625H20.6876V3.75ZM20.6876 7.5H22.5626V9.375H20.6876V7.5ZM20.6876 11.25H22.5626V13.125H20.6876V11.25ZM20.6876 15H22.5626V16.875H20.6876V15ZM20.6876 18.75H22.5626V20.625H20.6876V18.75ZM16.9376 3.75H18.8126V5.625H16.9376V3.75ZM16.9376 7.5H18.8126V9.375H16.9376V7.5ZM16.9376 11.25H18.8126V13.125H16.9376V11.25ZM16.9376 15H18.8126V16.875H16.9376V15ZM16.9376 18.75H18.8126V20.625H16.9376V18.75ZM13.1876 3.75H15.0626V5.625H13.1876V3.75ZM13.1876 7.5H15.0626V9.375H13.1876V7.5ZM13.1876 11.25H15.0626V13.125H13.1876V11.25ZM13.1876 15H15.0626V16.875H13.1876V15ZM13.1876 18.75H15.0626V20.625H13.1876V18.75ZM9.43756 3.75H11.3126V5.625H9.43756V3.75ZM9.43756 7.5H11.3126V9.375H9.43756V7.5ZM9.43756 11.25H11.3126V13.125H9.43756V11.25ZM9.43756 15H11.3126V16.875H9.43756V15ZM9.43756 18.75H11.3126V20.625H9.43756V18.75Z" fill="#2ECC71"/>
<path d="M26.2898 7.5H32V32H26.2898V7.5Z" fill="#2ECC71"/>
<path d="M0 7.5H5.68725V32H0V7.5Z" fill="#2ECC71"/>
</g>
<defs>
<clipPath id="clip0_50_782">
<rect width="32" height="32" fill="white"/>
</clipPath>
</defs>
</svg>
