<svg width="26" height="26" viewBox="0 0 26 26" fill="none" xmlns="http://www.w3.org/2000/svg">
<circle cx="13" cy="13" r="13" fill="white" fill-opacity="0.9"/>
<g clip-path="url(#clip0_50_573)">
<path d="M15.8125 7.70312C15.1613 7.70312 14.5643 7.90947 14.0381 8.31644C13.5336 8.7066 13.1977 9.20355 13 9.56491C12.8023 9.20352 12.4664 8.7066 11.9619 8.31644C11.4357 7.90947 10.8387 7.70312 10.1875 7.70312C8.37034 7.70312 7 9.18946 7 11.1605C7 13.2899 8.7096 14.7468 11.2977 16.9523C11.7372 17.3269 12.2354 17.7514 12.7532 18.2042C12.8214 18.264 12.9091 18.2969 13 18.2969C13.0909 18.2969 13.1786 18.264 13.2468 18.2042C13.7647 17.7514 14.2628 17.3268 14.7026 16.9521C17.2904 14.7468 19 13.2899 19 11.1605C19 9.18946 17.6297 7.70312 15.8125 7.70312Z" fill="#FF4848"/>
</g>
<defs>
<clipPath id="clip0_50_573">
<rect width="12" height="12" fill="white" transform="translate(7 7)"/>
</clipPath>
</defs>
</svg>
