<svg width="15" height="19" viewBox="0 0 15 19" fill="none" xmlns="http://www.w3.org/2000/svg">
<path fill-rule="evenodd" clip-rule="evenodd" d="M0.0625 8.02804C0.0625 4.00315 3.4259 0.75 7.49426 0.75C11.5741 0.75 14.9375 4.00315 14.9375 8.02804C14.9375 10.0562 14.1999 11.9392 12.9858 13.5351C11.6465 15.2956 9.99564 16.8294 8.13747 18.0334C7.7122 18.3116 7.32839 18.3326 6.86164 18.0334C4.99289 16.8294 3.34208 15.2956 2.01419 13.5351C0.799236 11.9392 0.0625 10.0562 0.0625 8.02804ZM5.04494 8.25465C5.04494 9.60299 6.14519 10.6635 7.49425 10.6635C8.8442 10.6635 9.95504 9.60299 9.95504 8.25465C9.95504 6.91682 8.8442 5.80473 7.49425 5.80473C6.14519 5.80473 5.04494 6.91682 5.04494 8.25465Z" fill="white"/>
</svg>
