<svg width="20" height="32" viewBox="0 0 20 32" fill="none" xmlns="http://www.w3.org/2000/svg">
<path d="M15.6182 0H4.38184C2.16365 0 0.381836 1.78182 0.381836 4V28C0.381836 30.2182 2.20002 32 4.38184 32H15.6182C17.8364 32 19.6182 30.2182 19.6182 28V4C19.6182 1.78182 17.8364 0 15.6182 0ZM10.0182 29.4182C9.00002 29.4182 8.20002 28.6182 8.20002 27.6C8.20002 26.5818 9.00002 25.7818 10.0182 25.7818C11.0364 25.7818 11.8364 26.5818 11.8364 27.6C11.8364 28.6182 11.0364 29.4182 10.0182 29.4182ZM17.8 23.8545H2.20002V5.34545H17.8V23.8545Z" fill="#2ECC71"/>
</svg>
