<svg width="30" height="30" viewBox="0 0 30 30" fill="none" xmlns="http://www.w3.org/2000/svg">
<path fill-rule="evenodd" clip-rule="evenodd" d="M5.67488 2.5H9.89988C11.6624 2.5 13.0749 3.9375 13.0749 5.70125V9.9625C13.0749 11.7375 11.6624 13.1625 9.89988 13.1625H5.67488C3.92488 13.1625 2.49988 11.7375 2.49988 9.9625V5.70125C2.49988 3.9375 3.92488 2.5 5.67488 2.5ZM5.67488 16.8371H9.89988C11.6624 16.8371 13.0749 18.2634 13.0749 20.0384V24.2996C13.0749 26.0621 11.6624 27.4996 9.89988 27.4996H5.67488C3.92488 27.4996 2.49988 26.0621 2.49988 24.2996V20.0384C2.49988 18.2634 3.92488 16.8371 5.67488 16.8371ZM24.325 2.5H20.1C18.3375 2.5 16.925 3.9375 16.925 5.70125V9.9625C16.925 11.7375 18.3375 13.1625 20.1 13.1625H24.325C26.075 13.1625 27.5 11.7375 27.5 9.9625V5.70125C27.5 3.9375 26.075 2.5 24.325 2.5ZM20.1 16.8371H24.325C26.075 16.8371 27.5 18.2634 27.5 20.0384V24.2996C27.5 26.0621 26.075 27.4996 24.325 27.4996H20.1C18.3375 27.4996 16.925 26.0621 16.925 24.2996V20.0384C16.925 18.2634 18.3375 16.8371 20.1 16.8371Z" fill="#2ECC71"/>
</svg>
