<svg width="43" height="20" viewBox="0 0 43 20" fill="none" xmlns="http://www.w3.org/2000/svg">
<path d="M16.3818 14.07C15.9151 14.07 15.4951 13.99 15.1218 13.83C14.7485 13.6633 14.4551 13.43 14.2418 13.13C14.0285 12.83 13.9218 12.48 13.9218 12.08H15.1418C15.1685 12.38 15.2851 12.6267 15.4918 12.82C15.7051 13.0133 16.0018 13.11 16.3818 13.11C16.7751 13.11 17.0818 13.0167 17.3018 12.83C17.5218 12.6367 17.6318 12.39 17.6318 12.09C17.6318 11.8567 17.5618 11.6667 17.4218 11.52C17.2885 11.3733 17.1185 11.26 16.9118 11.18C16.7118 11.1 16.4318 11.0133 16.0718 10.92C15.6185 10.8 15.2485 10.68 14.9618 10.56C14.6818 10.4333 14.4418 10.24 14.2418 9.98C14.0418 9.72 13.9418 9.37333 13.9418 8.94C13.9418 8.54 14.0418 8.19 14.2418 7.89C14.4418 7.59 14.7218 7.36 15.0818 7.2C15.4418 7.04 15.8585 6.96 16.3318 6.96C17.0051 6.96 17.5551 7.13 17.9818 7.47C18.4151 7.80333 18.6551 8.26333 18.7018 8.85H17.4418C17.4218 8.59667 17.3018 8.38 17.0818 8.2C16.8618 8.02 16.5718 7.93 16.2118 7.93C15.8851 7.93 15.6185 8.01333 15.4118 8.18C15.2051 8.34667 15.1018 8.58667 15.1018 8.9C15.1018 9.11333 15.1651 9.29 15.2918 9.43C15.4251 9.56333 15.5918 9.67 15.7918 9.75C15.9918 9.83 16.2651 9.91667 16.6118 10.01C17.0718 10.1367 17.4451 10.2633 17.7318 10.39C18.0251 10.5167 18.2718 10.7133 18.4718 10.98C18.6785 11.24 18.7818 11.59 18.7818 12.03C18.7818 12.3833 18.6851 12.7167 18.4918 13.03C18.3051 13.3433 18.0285 13.5967 17.6618 13.79C17.3018 13.9767 16.8751 14.07 16.3818 14.07ZM22.977 8.4C23.397 8.4 23.7703 8.49 24.097 8.67C24.4303 8.85 24.6903 9.11667 24.877 9.47C25.0703 9.82333 25.167 10.25 25.167 10.75V14H24.037V10.92C24.037 10.4267 23.9136 10.05 23.667 9.79C23.4203 9.52333 23.0836 9.39 22.657 9.39C22.2303 9.39 21.8903 9.52333 21.637 9.79C21.3903 10.05 21.267 10.4267 21.267 10.92V14H20.127V6.6H21.267V9.13C21.4603 8.89667 21.7036 8.71667 21.997 8.59C22.297 8.46333 22.6236 8.4 22.977 8.4ZM26.2411 11.22C26.2411 10.6667 26.3544 10.1767 26.5811 9.75C26.8144 9.32333 27.1278 8.99333 27.5211 8.76C27.9211 8.52 28.3611 8.4 28.8411 8.4C29.2744 8.4 29.6511 8.48667 29.9711 8.66C30.2978 8.82667 30.5578 9.03667 30.7511 9.29V8.49H31.9011V14H30.7511V13.18C30.5578 13.44 30.2944 13.6567 29.9611 13.83C29.6278 14.0033 29.2478 14.09 28.8211 14.09C28.3478 14.09 27.9144 13.97 27.5211 13.73C27.1278 13.4833 26.8144 13.1433 26.5811 12.71C26.3544 12.27 26.2411 11.7733 26.2411 11.22ZM30.7511 11.24C30.7511 10.86 30.6711 10.53 30.5111 10.25C30.3578 9.97 30.1544 9.75667 29.9011 9.61C29.6478 9.46333 29.3744 9.39 29.0811 9.39C28.7878 9.39 28.5144 9.46333 28.2611 9.61C28.0078 9.75 27.8011 9.96 27.6411 10.24C27.4878 10.5133 27.4111 10.84 27.4111 11.22C27.4111 11.6 27.4878 11.9333 27.6411 12.22C27.8011 12.5067 28.0078 12.7267 28.2611 12.88C28.5211 13.0267 28.7944 13.1 29.0811 13.1C29.3744 13.1 29.6478 13.0267 29.9011 12.88C30.1544 12.7333 30.3578 12.52 30.5111 12.24C30.6711 11.9533 30.7511 11.62 30.7511 11.24ZM34.5384 9.29C34.7051 9.01 34.9251 8.79333 35.1984 8.64C35.4784 8.48 35.8084 8.4 36.1884 8.4V9.58H35.8984C35.4518 9.58 35.1118 9.69333 34.8784 9.92C34.6518 10.1467 34.5384 10.54 34.5384 11.1V14H33.3984V8.49H34.5384V9.29ZM42.2863 11.11C42.2863 11.3167 42.273 11.5033 42.2463 11.67H38.0363C38.0697 12.11 38.233 12.4633 38.5263 12.73C38.8197 12.9967 39.1797 13.13 39.6063 13.13C40.2197 13.13 40.653 12.8733 40.9063 12.36H42.1363C41.9697 12.8667 41.6663 13.2833 41.2263 13.61C40.793 13.93 40.253 14.09 39.6063 14.09C39.0797 14.09 38.6063 13.9733 38.1863 13.74C37.773 13.5 37.4463 13.1667 37.2063 12.74C36.973 12.3067 36.8563 11.8067 36.8563 11.24C36.8563 10.6733 36.9697 10.1767 37.1963 9.75C37.4297 9.31667 37.753 8.98333 38.1663 8.75C38.5863 8.51667 39.0663 8.4 39.6063 8.4C40.1263 8.4 40.5897 8.51333 40.9963 8.74C41.403 8.96667 41.7197 9.28667 41.9463 9.7C42.173 10.1067 42.2863 10.5767 42.2863 11.11ZM41.0963 10.75C41.0897 10.33 40.9397 9.99333 40.6463 9.74C40.353 9.48667 39.9897 9.36 39.5563 9.36C39.163 9.36 38.8263 9.48667 38.5463 9.74C38.2663 9.98667 38.0997 10.3233 38.0463 10.75H41.0963Z" fill="white"/>
<g clip-path="url(#clip0_50_645)">
<path d="M7.41138 8.33331C7.41138 8.93164 6.92639 9.41669 6.32806 9.41669C5.72974 9.41669 5.24475 8.93164 5.24475 8.33331C5.24475 7.73505 5.72974 7.25 6.32806 7.25C6.92639 7.25 7.41138 7.73505 7.41138 8.33331Z" fill="white"/>
<path d="M6.32806 9.66669C5.59271 9.66669 4.99475 9.06866 4.99475 8.33331C4.99475 7.59802 5.59271 7 6.32806 7C7.06342 7 7.66138 7.59802 7.66138 8.33331C7.66138 9.06866 7.06342 9.66669 6.32806 9.66669ZM6.32806 7.5C5.86841 7.5 5.49475 7.87402 5.49475 8.33331C5.49475 8.79266 5.86841 9.16669 6.32806 9.16669C6.78772 9.16669 7.16138 8.79266 7.16138 8.33331C7.16138 7.87402 6.78772 7.5 6.32806 7.5Z" fill="white"/>
<path d="M7.41138 13.6669C7.41138 14.2651 6.92639 14.7502 6.32806 14.7502C5.72974 14.7502 5.24475 14.2651 5.24475 13.6669C5.24475 13.0685 5.72974 12.5835 6.32806 12.5835C6.92639 12.5835 7.41138 13.0685 7.41138 13.6669Z" fill="white"/>
<path d="M6.32806 15.0002C5.59271 15.0002 4.99475 14.4022 4.99475 13.6669C4.99475 12.9315 5.59271 12.3335 6.32806 12.3335C7.06342 12.3335 7.66138 12.9315 7.66138 13.6669C7.66138 14.4022 7.06342 15.0002 6.32806 15.0002ZM6.32806 12.8335C5.86841 12.8335 5.49475 13.2075 5.49475 13.6669C5.49475 14.1262 5.86841 14.5002 6.32806 14.5002C6.78772 14.5002 7.16138 14.1262 7.16138 13.6669C7.16138 13.2075 6.78772 12.8335 6.32806 12.8335Z" fill="white"/>
<path d="M2.74481 10.9998C2.74481 11.5981 2.25977 12.0831 1.66144 12.0831C1.06317 12.0831 0.578125 11.5981 0.578125 10.9998C0.578125 10.4015 1.06317 9.9165 1.66144 9.9165C2.25977 9.9165 2.74481 10.4015 2.74481 10.9998Z" fill="white"/>
<path d="M1.66144 12.3331C0.926147 12.3331 0.328125 11.7352 0.328125 10.9998C0.328125 10.2645 0.926147 9.6665 1.66144 9.6665C2.39679 9.6665 2.99481 10.2645 2.99481 10.9998C2.99481 11.7352 2.39679 12.3331 1.66144 12.3331ZM1.66144 10.1665C1.20178 10.1665 0.828125 10.5405 0.828125 10.9998C0.828125 11.4592 1.20178 11.8331 1.66144 11.8331C2.12115 11.8331 2.49481 11.4592 2.49481 10.9998C2.49481 10.5405 2.12115 10.1665 1.66144 10.1665Z" fill="white"/>
<path d="M2.44832 10.8401C2.33229 10.8401 2.21962 10.7797 2.15828 10.6718C2.06728 10.5121 2.12331 10.3084 2.28298 10.217L5.37593 8.45374C5.5356 8.36206 5.73927 8.41809 5.83064 8.57837C5.92165 8.73804 5.86562 8.94172 5.70595 9.03308L2.61293 10.7964C2.56093 10.8261 2.50429 10.8401 2.44832 10.8401Z" fill="white"/>
<path d="M5.54101 13.59C5.48498 13.59 5.42834 13.576 5.37634 13.5463L2.28333 11.783C2.12366 11.692 2.06769 11.4883 2.15869 11.3283C2.24933 11.1683 2.45331 11.112 2.61334 11.2037L5.70636 12.967C5.86602 13.058 5.92199 13.2617 5.83099 13.4217C5.76934 13.5297 5.65667 13.59 5.54101 13.59Z" fill="white"/>
</g>
<defs>
<clipPath id="clip0_50_645">
<rect width="8" height="8" fill="white" transform="translate(0 7)"/>
</clipPath>
</defs>
</svg>
