<svg width="30" height="27" viewBox="0 0 30 27" fill="none" xmlns="http://www.w3.org/2000/svg">
<rect x="0.25" y="0.25" width="29.5" height="26.5" rx="3.75" fill="white" stroke="#F1F1F1" stroke-width="0.5"/>
<path d="M11.7322 12.917L8.2381 19.5001L11.4111 19.2069L12.9468 21.9992L16.4409 15.4162L11.7322 12.917Z" fill="#E95454"/>
<path d="M12.132 20.0826C12.2301 19.872 12.1275 19.6204 11.9224 19.5113L11.7213 19.4043C11.5202 19.2897 11.4437 19.0351 11.5532 18.829C11.6643 18.6194 11.9254 18.5394 12.135 18.6504L12.7033 18.952C12.8789 19.0451 13.099 18.9776 13.1895 18.801L13.2035 18.774C13.3076 18.6074 13.246 18.3873 13.073 18.2957L11.3732 17.3938C11.1661 17.2838 11.0645 17.0332 11.1611 16.8221C11.2676 16.5974 11.5367 16.5089 11.7533 16.624L13.3301 17.4609C13.5057 17.5539 13.7258 17.4864 13.8188 17.3108L13.8278 17.2878L13.8303 17.2828C13.9309 17.0987 13.8603 16.8676 13.6747 16.769L12.7903 16.2998C12.5832 16.1898 12.4817 15.9391 12.5797 15.7255C12.6853 15.5034 12.9554 15.4124 13.172 15.5274L14.149 16.0462C14.3315 16.1432 14.5496 16.0622 14.6442 15.8781C14.6457 15.8756 14.6457 15.8756 14.6467 15.8731C14.6482 15.8706 14.6482 15.8706 14.6492 15.8681C14.7487 15.6865 14.6937 15.4604 14.5106 15.3639L13.4566 14.8046C13.252 14.6961 13.1505 14.4454 13.247 14.2343C13.3536 14.0097 13.6227 13.9212 13.8393 14.0362L16.4395 15.4164L12.9454 21.9995L11.9824 20.2492C12.0445 20.2071 12.0985 20.1551 12.132 20.0826Z" fill="#ED6362"/>
<path d="M18.2677 12.917L21.7619 19.5001L18.5889 19.2069L17.0532 21.9992L13.559 15.4162L18.2677 12.917Z" fill="#ED6362"/>
<path d="M17.8679 20.0826C17.7698 19.872 17.8724 19.6204 18.0775 19.5113L18.2786 19.4042C18.4797 19.2897 18.5562 19.0351 18.4467 18.829C18.3356 18.6194 18.0745 18.5393 17.8649 18.6504L17.2966 18.952C17.121 19.0451 16.9009 18.9775 16.8104 18.801L16.7964 18.774C16.6923 18.6074 16.7539 18.3873 16.927 18.2957L18.6273 17.3933C18.8343 17.2833 18.9359 17.0326 18.8394 16.8215C18.7328 16.5969 18.4637 16.5084 18.2471 16.6234L16.6703 17.4603C16.4948 17.5534 16.2746 17.4859 16.1816 17.3103L16.1726 17.2873L16.1701 17.2823C16.0696 17.0982 16.1401 16.8671 16.3257 16.7685L17.2101 16.2993C17.4172 16.1892 17.5187 15.9386 17.4207 15.725C17.3151 15.5029 17.045 15.4119 16.8284 15.5269L15.8504 16.0467C15.6679 16.1437 15.4498 16.0627 15.3552 15.8786C15.3537 15.8761 15.3537 15.8761 15.3527 15.8736C15.3512 15.8711 15.3512 15.8711 15.3502 15.8686C15.2507 15.687 15.3057 15.4609 15.4888 15.3644L16.5428 14.8051C16.7474 14.6965 16.8489 14.4459 16.7524 14.2348C16.6458 14.0102 16.3767 13.9217 16.1601 14.0367L13.5599 15.4169L17.054 22L18.017 20.2496C17.9554 20.2071 17.9014 20.1551 17.8679 20.0826Z" fill="#E95454"/>
<path d="M14.9999 17.6765C18.2243 17.6765 20.8382 15.0626 20.8382 11.8382C20.8382 8.61387 18.2243 6 14.9999 6C11.7756 6 9.16171 8.61387 9.16171 11.8382C9.16171 15.0626 11.7756 17.6765 14.9999 17.6765Z" fill="#FFCC5B"/>
<path d="M15.7919 11.1682H12.0921C11.8045 11.1682 11.5684 10.9321 11.5684 10.6445L11.5724 10.6084V10.6004C11.5684 10.2968 11.816 10.0487 12.1202 10.0487H14.6844C15.024 10.0487 15.3242 9.79706 15.3442 9.4569C15.3602 9.10124 15.0765 8.8011 14.7204 8.8011H12.0041C11.7045 8.8011 11.4804 8.54948 11.4844 8.24934C11.4844 8.24534 11.4844 8.24534 11.4844 8.24133C11.4844 8.23733 11.4844 8.23733 11.4844 8.23333C11.4804 7.93369 11.704 7.68157 12.0041 7.68157H14.8464C15.1821 7.68157 15.4822 7.42995 15.5022 7.0938C15.5182 6.73413 15.2346 6.43799 14.8784 6.43799H12.797C10.6745 7.3129 9.17877 9.39988 9.17877 11.838C9.17877 14.2762 10.6745 16.3626 12.7975 17.2365H15.4402C15.7759 17.2365 16.076 16.9849 16.096 16.6488C16.112 16.2891 15.8284 15.9935 15.4722 15.9935L12.4658 15.993C12.1111 15.993 11.8255 15.6963 11.8445 15.3372C11.862 15.001 12.1642 14.7484 12.5008 14.7484H13.6664C14.0015 14.7389 14.2722 14.4642 14.2722 14.1266C14.2722 13.7829 13.9925 13.5028 13.6484 13.5028H11.8815C11.5939 13.5028 11.3578 13.2672 11.3618 12.9791V12.935C11.3418 12.6514 11.5699 12.4113 11.8535 12.4113H15.7559C16.0955 12.4113 16.3957 12.1597 16.4157 11.8235C16.4317 11.4643 16.1475 11.1682 15.7919 11.1682Z" fill="#FDBC4B"/>
<path d="M15 16.0053C12.702 16.0053 10.8326 14.1354 10.8326 11.8379C10.8326 9.54027 12.702 7.6709 15 7.6709C17.2981 7.6709 19.1675 9.54077 19.1675 11.8384C19.1675 14.1359 17.2981 16.0053 15 16.0053Z" fill="#FFDB70"/>
<path opacity="0.2" d="M19.1676 11.8381C19.1676 9.62103 17.4258 7.80768 15.2393 7.68262H14.8511C14.595 7.68262 14.3664 7.87471 14.3509 8.13083C14.3388 8.40496 14.5549 8.63106 14.8266 8.63106L17.1196 8.63156C17.3903 8.63156 17.6079 8.85767 17.5934 9.1318C17.5799 9.38842 17.3497 9.58101 17.0926 9.58101H16.2037C15.9481 9.58851 15.7415 9.79761 15.7415 10.0552C15.7415 10.3174 15.9551 10.531 16.2172 10.531H17.5648C17.7845 10.531 17.964 10.711 17.961 10.9301V10.9632C17.976 11.1798 17.8025 11.3623 17.5859 11.3623H14.61C14.3509 11.3623 14.1222 11.5544 14.1067 11.8106C14.0947 12.0847 14.3108 12.3108 14.5825 12.3108H17.4038C17.6234 12.3108 17.803 12.4909 17.803 12.71L17.8 12.7375V12.7435C17.803 12.9751 17.6139 13.1642 17.3823 13.1642H15.4264C15.1672 13.1642 14.9386 13.3563 14.9231 13.6154C14.9111 13.8865 15.1272 14.1156 15.3988 14.1156H17.4703C17.6989 14.1156 17.8695 14.3077 17.8665 14.5363C17.8665 14.5393 17.8665 14.5393 17.8665 14.5423C17.8665 14.5453 17.8665 14.5453 17.8665 14.5483C17.8695 14.7769 17.6989 14.969 17.4703 14.969H15.3028C15.0467 14.969 14.8181 15.1611 14.8026 15.4172C14.7906 15.6919 15.0067 15.9175 15.2783 15.9175H15.8501C17.7424 15.5233 19.1676 13.844 19.1676 11.8381Z" fill="white"/>
<path d="M17.9093 10.9154H15.8824L15.2556 8.98747C15.175 8.73985 14.8244 8.73985 14.7438 8.98747L14.1176 10.9154H12.0906C11.83 10.9154 11.7214 11.249 11.9325 11.4021L13.5723 12.5937L12.946 14.5216C12.8655 14.7692 13.1491 14.9753 13.3602 14.8222L15 13.6307L16.6397 14.8222C16.8508 14.9753 17.1345 14.7692 17.0539 14.5216L16.4276 12.5937L18.0674 11.4021C18.278 11.249 18.17 10.9154 17.9093 10.9154Z" fill="#EC9922"/>
</svg>
