<svg width="32" height="28" viewBox="0 0 32 28" fill="none" xmlns="http://www.w3.org/2000/svg">
<path d="M31.9996 15.4709C31.9996 14.8415 31.8575 14.2403 31.6008 13.6903C31.5744 13.5505 31.5441 13.4109 31.5063 13.2692L28.7267 6.38057L28.7079 6.31859C27.7353 3.4228 26.3515 0.742676 22.8426 0.742676H9.42661C5.83119 0.742676 4.56069 3.48921 3.56683 6.30251L0.659308 13.208C0.238975 13.8814 0 14.6518 0 15.4709V17.6145C0 17.9459 0.0391739 18.2701 0.113662 18.5823C0.041247 18.771 0 18.9743 0 19.1886V25.564C0 26.4989 0.757886 27.2569 1.69277 27.2569H5.20555C6.13994 27.2569 6.89782 26.4989 6.89782 25.564V22.3758H25.3024V25.564C25.3024 26.4989 26.0604 27.2569 26.9954 27.2569H30.307C31.2423 27.2569 32 26.4989 32 25.564V19.1879C32 18.9743 31.9583 18.7701 31.8865 18.5821C31.9607 18.2694 32 17.9455 32 17.6142V15.471H31.9996V15.4709ZM5.62975 6.99413C6.73655 3.87144 7.62662 2.91819 9.42661 2.91819H22.8418C24.6286 2.91819 25.6235 3.98139 26.6345 6.98069L28.6629 11.0912C28.0006 10.846 27.2718 10.7099 26.506 10.7099H5.49357C4.80409 10.7099 4.14521 10.8207 3.5373 11.0214L5.62975 6.99413ZM7.3722 18.4285H3.66583C2.99852 18.4285 2.4573 17.8868 2.4573 17.2196C2.4573 16.5521 2.99852 16.0108 3.66583 16.0108H7.3722C8.0398 16.0108 8.58101 16.5521 8.58101 17.2196C8.58101 17.8868 8.03944 18.4285 7.3722 18.4285ZM20.4651 18.1864H11.844C11.4213 18.1864 11.0788 17.8437 11.0788 17.4213C11.0788 16.998 11.4213 16.6554 11.844 16.6554H20.4651C20.8883 16.6554 21.2307 16.998 21.2307 17.4213C21.2307 17.8437 20.8883 18.1864 20.4651 18.1864ZM28.2403 18.4285H24.5341C23.8662 18.4285 23.3253 17.8868 23.3253 17.2196C23.3253 16.5521 23.8666 16.0108 24.5341 16.0108H28.2403C28.9082 16.0108 29.4496 16.5521 29.4496 17.2196C29.4496 17.8868 28.9082 18.4285 28.2403 18.4285Z" fill="#2ECC71"/>
</svg>
