<svg width="18" height="18" viewBox="0 0 18 18" fill="none" xmlns="http://www.w3.org/2000/svg">
<path d="M12.7387 16.0575L12.4872 17.0856C11.7327 17.3834 11.13 17.6101 10.6812 17.7659C10.2319 17.9222 9.70987 18 9.11507 18C8.20166 18 7.49119 17.7762 6.98447 17.3318C6.47775 16.8856 6.22431 16.3201 6.22431 15.6342C6.22431 15.3687 6.2427 15.0955 6.28094 14.8172C6.31949 14.5386 6.3808 14.2249 6.46468 13.8741L7.40762 10.5367C7.49151 10.2171 7.56281 9.9143 7.61992 9.62795C7.67784 9.34338 7.70575 9.08155 7.70575 8.84585C7.70575 8.41964 7.6175 8.12151 7.44182 7.9539C7.26614 7.78677 6.93091 7.70191 6.43323 7.70191C6.18947 7.70191 5.93893 7.74095 5.68356 7.81645C5.42705 7.89227 5.20781 7.96551 5.02374 8.03359L5.27589 7.00467C5.8936 6.75317 6.48404 6.5378 7.04884 6.35905C7.61363 6.17982 8.14729 6.09013 8.65207 6.09013C9.55919 6.09013 10.2592 6.30936 10.7507 6.74784C11.2423 7.18664 11.488 7.75547 11.488 8.45642C11.488 8.60145 11.4718 8.85699 11.4372 9.22222C11.4033 9.58827 11.3402 9.92366 11.2483 10.2287L10.3093 13.5528C10.2324 13.8198 10.1632 14.125 10.103 14.4685C10.0409 14.8097 10.0112 15.0704 10.0112 15.2452C10.0112 15.6866 10.1096 15.988 10.3069 16.1482C10.5057 16.3084 10.848 16.3881 11.3342 16.3881C11.5625 16.3881 11.8222 16.3476 12.1108 16.268C12.3987 16.1885 12.6085 16.1186 12.7387 16.0575ZM12.9768 2.10205C12.9768 2.6812 12.7586 3.17582 12.3199 3.58251C11.8824 3.99066 11.3552 4.1949 10.7385 4.1949C10.1198 4.1949 9.5913 3.99066 9.14879 3.58251C8.70708 3.17565 8.48575 2.6812 8.48575 2.10205C8.48575 1.52402 8.70708 1.0286 9.14879 0.61674C9.59049 0.205526 10.12 0 10.7385 0C11.355 0 11.8824 0.20601 12.3199 0.61674C12.7589 1.0286 12.9768 1.52418 12.9768 2.10205Z" fill="black" fill-opacity="0.3"/>
</svg>
