<svg width="24" height="24" viewBox="0 0 24 24" fill="none" xmlns="http://www.w3.org/2000/svg">
<g clip-path="url(#clip0_50_2473)">
<path d="M12 17C14.7614 17 17 14.7614 17 12C17 9.23858 14.7614 7 12 7C9.23858 7 7 9.23858 7 12C7 14.7614 9.23858 17 12 17Z" fill="black" fill-opacity="0.4"/>
<path d="M23 11H21.949C21.479 6.283 17.717 2.521 13 2.051V1C13 0.448 12.553 0 12 0C11.447 0 11 0.448 11 1V2.051C6.283 2.521 2.521 6.283 2.051 11H1C0.447 11 0 11.448 0 12C0 12.552 0.447 13 1 13H2.051C2.522 17.717 6.283 21.479 11 21.949V23C11 23.552 11.447 24 12 24C12.553 24 13 23.552 13 23V21.949C17.717 21.478 21.479 17.717 21.949 13H23C23.553 13 24 12.552 24 12C24 11.448 23.553 11 23 11ZM12.986 19.933C12.95 19.414 12.529 19 12 19C11.471 19 11.05 19.414 11.014 19.933C7.392 19.485 4.516 16.609 4.068 12.987C4.587 12.95 5 12.528 5 12C5 11.472 4.587 11.05 4.067 11.014C4.515 7.392 7.391 4.516 11.013 4.068C11.05 4.586 11.471 5 12 5C12.529 5 12.95 4.586 12.986 4.067C16.608 4.515 19.484 7.391 19.932 11.013C19.413 11.05 19 11.472 19 12C19 12.528 19.413 12.95 19.933 12.986C19.484 16.609 16.609 19.484 12.986 19.933Z" fill="black" fill-opacity="0.4"/>
</g>
<defs>
<clipPath id="clip0_50_2473">
<rect width="24" height="24" fill="white"/>
</clipPath>
</defs>
</svg>
