<svg width="17" height="17" viewBox="0 0 17 17" fill="none" xmlns="http://www.w3.org/2000/svg">
<path fill-rule="evenodd" clip-rule="evenodd" d="M6.20435 15.5244L13.8924 5.58226C14.3103 5.04612 14.4588 4.42626 14.3196 3.79512C14.1988 3.22135 13.846 2.6758 13.3168 2.26194L12.0261 1.23668C10.9026 0.34311 9.50985 0.43717 8.71133 1.46242L7.84782 2.58268C7.73639 2.72283 7.76425 2.92976 7.90353 3.04263C7.90353 3.04263 10.0855 4.79215 10.132 4.82978C10.2805 4.97087 10.3919 5.15899 10.4198 5.38473C10.4662 5.82681 10.1598 6.24068 9.70484 6.29711C9.49128 6.32533 9.28701 6.25949 9.13845 6.13721L6.84502 4.31245C6.7336 4.22873 6.56647 4.2466 6.47362 4.35948L1.02325 11.414C0.670411 11.8561 0.549704 12.4298 0.670411 12.9848L1.3668 16.0041C1.40394 16.164 1.54321 16.2769 1.71035 16.2769L4.77444 16.2393C5.33155 16.2299 5.85151 15.9759 6.20435 15.5244ZM10.4947 14.5841H15.491C15.9785 14.5841 16.3749 14.9857 16.3749 15.4795C16.3749 15.9743 15.9785 16.375 15.491 16.375H10.4947C10.0072 16.375 9.61072 15.9743 9.61072 15.4795C9.61072 14.9857 10.0072 14.5841 10.4947 14.5841Z" fill="black" fill-opacity="0.4"/>
</svg>
