<svg width="22" height="31" viewBox="0 0 22 31" fill="none" xmlns="http://www.w3.org/2000/svg">
<path d="M10.7284 0.984375C4.97852 0.984375 0.300537 5.66235 0.300537 11.4122C0.300537 18.6392 10.7386 30.9844 10.7386 30.9844C10.7386 30.9844 21.1562 18.2838 21.1562 11.4122C21.1562 5.66235 16.4785 0.984375 10.7284 0.984375ZM13.8747 14.4655C13.0071 15.3329 11.8679 15.7667 10.7284 15.7667C9.58911 15.7667 8.44946 15.3329 7.58228 14.4655C5.84735 12.7308 5.84735 9.90802 7.58228 8.17309C8.42236 7.33264 9.53986 6.86975 10.7284 6.86975C11.9169 6.86975 13.0342 7.33282 13.8747 8.17309C15.6096 9.90802 15.6096 12.7308 13.8747 14.4655Z" fill="#FF3F3F"/>
</svg>
