<svg width="20" height="20" viewBox="0 0 20 20" fill="none" xmlns="http://www.w3.org/2000/svg">
<path d="M4.2705 18.1828C5.89606 19.3239 7.86913 20 10.0004 20C15.5155 20 19.9989 15.515 19.9989 10.0015C19.9989 8.92948 19.8263 7.90086 19.5125 6.93078C18.665 4.30918 16.7594 2.16428 14.3027 0.988257C12.9967 0.361882 11.543 -0.000381431 10.0001 3.01382e-07C4.48809 -0.000381431 0.00158691 4.48879 0.00158691 10.0015C0.00158691 12.217 0.735038 14.2591 1.9572 15.9177C2.60228 16.7915 3.3803 17.5568 4.2705 18.1828ZM16.8153 4.40929C17.4308 5.15553 17.9265 6.00303 18.271 6.92424C18.3458 7.12475 18.2334 7.34391 18.0297 7.40985L14.5304 8.54088C14.3267 8.60682 14.1103 8.49392 14.0269 8.29652C13.9148 8.03084 13.7767 7.77832 13.6162 7.54327C13.4952 7.36562 13.5068 7.1112 13.66 6.96108L16.2855 4.38682C16.4383 4.23709 16.6791 4.24405 16.8153 4.40929ZM12.0491 5.70747L13.6301 2.3916C13.7224 2.19806 13.9543 2.11623 14.1436 2.21629C14.3279 2.31363 14.5082 2.4168 14.6851 2.52659C14.867 2.63987 14.917 2.8869 14.8033 3.06846L12.8442 6.19041C12.7306 6.37192 12.5002 6.41267 12.3191 6.29863C12.2881 6.27883 12.2566 6.25945 12.2248 6.24084C12.0402 6.131 11.9569 5.90101 12.0491 5.70747ZM10.0001 7.39158C11.4375 7.39158 12.6085 8.56373 12.6089 10.0011C12.6085 11.4398 11.4375 12.6084 10.0001 12.608C8.56265 12.608 7.39321 11.4398 7.39321 10.0011C7.39359 8.56373 8.56303 7.39158 10.0001 7.39158ZM3.21277 14.9942L6.17105 12.8194C6.34364 12.6926 6.58489 12.731 6.72647 12.8919C6.86842 13.0537 7.02202 13.2045 7.18645 13.3438C7.35012 13.4819 7.39359 13.7231 7.27101 13.8984L5.16413 16.9067C5.04155 17.0824 4.79915 17.1251 4.62966 16.994C4.0762 16.5669 3.57622 16.0756 3.13713 15.5313C3.00291 15.3642 3.04017 15.1214 3.21277 14.9942Z" fill="#2ECC71"/>
</svg>
