<svg width="22" height="22" viewBox="0 0 22 22" fill="none" xmlns="http://www.w3.org/2000/svg">
<path fill-rule="evenodd" clip-rule="evenodd" d="M15.1707 0.709157C15.8543 0.709157 16.5368 0.805574 17.1857 1.02332C21.1843 2.32332 22.6251 6.71082 21.4215 10.5458C20.739 12.5056 19.6232 14.2942 18.1618 15.7556C16.0699 17.7814 13.7743 19.5797 11.3032 21.1289L11.0324 21.2925L10.7507 21.1181C8.27094 19.5797 5.96235 17.7814 3.85094 15.7447C2.39927 14.2833 1.28236 12.5056 0.589022 10.5458C-0.635145 6.71082 0.805689 2.32332 4.84761 1.00057C5.16177 0.892241 5.48569 0.816407 5.81069 0.774157H5.94069C6.2451 0.729741 6.54735 0.709157 6.85069 0.709157H6.96985C7.65235 0.729741 8.31319 0.848907 8.95344 1.06666H9.01735C9.06069 1.08724 9.09319 1.10999 9.11485 1.13057C9.35427 1.20749 9.58069 1.29416 9.79735 1.41332L10.209 1.59749C10.3085 1.65054 10.4201 1.73161 10.5166 1.80167C10.5778 1.84606 10.6328 1.88603 10.6749 1.91166C10.6925 1.92209 10.7105 1.93258 10.7286 1.94316C10.8215 1.99738 10.9183 2.05386 10.9999 2.11641C12.2034 1.19666 13.6649 0.698324 15.1707 0.709157ZM18.0523 8.50916C18.4965 8.49724 18.8757 8.14083 18.9082 7.68474V7.55583C18.9407 6.03808 18.0209 4.66333 16.6223 4.1325C16.1782 3.97975 15.6907 4.21916 15.5282 4.67416C15.3765 5.12916 15.6148 5.6275 16.0698 5.78891C16.7642 6.04891 17.229 6.7325 17.229 7.48974V7.52333C17.2084 7.77141 17.2832 8.01083 17.4348 8.19499C17.5865 8.37916 17.814 8.48641 18.0523 8.50916Z" fill="#B3B3B3"/>
</svg>
