<svg width="22" height="22" viewBox="0 0 22 22" fill="none" xmlns="http://www.w3.org/2000/svg">
<path d="M7.89599 20.5048V17.1922C7.89599 16.3466 8.5865 15.6612 9.43828 15.6612H12.552C12.961 15.6612 13.3533 15.8225 13.6425 16.1096C13.9318 16.3967 14.0943 16.7862 14.0943 17.1922V20.5048C14.0917 20.8563 14.2306 21.1944 14.48 21.4439C14.7295 21.6933 15.069 21.8337 15.4232 21.8336H17.5475C18.5396 21.8362 19.492 21.4467 20.1944 20.7512C20.8969 20.0557 21.2917 19.1112 21.2916 18.1263V8.68942C21.2916 7.89382 20.9364 7.13915 20.3216 6.62872L13.0952 0.899184C11.8381 -0.105399 10.037 -0.0729639 8.81749 0.976219L1.75591 6.62872C1.11212 7.12411 0.727328 7.88101 0.708313 8.68942V18.1167C0.708313 20.1695 2.38464 21.8336 4.4525 21.8336H6.52829C7.26381 21.8337 7.86156 21.2446 7.86689 20.5144L7.89599 20.5048Z" fill="#B3B3B3"/>
</svg>
