<svg width="22" height="20" viewBox="0 0 22 20" fill="none" xmlns="http://www.w3.org/2000/svg">
<path fill-rule="evenodd" clip-rule="evenodd" d="M16.3509 0.25C17.8037 0.25 19.2012 0.824167 20.2292 1.85442C21.2584 2.8825 21.8337 4.26917 21.8337 5.72083V14.2792C21.8337 17.3017 19.3745 19.75 16.3509 19.75H5.64866C2.62508 19.75 0.166992 17.3017 0.166992 14.2792V5.72083C0.166992 2.69833 2.61424 0.25 5.64866 0.25H16.3509ZM18.0745 7.33501L18.1612 7.24834C18.4201 6.93418 18.4201 6.47918 18.1492 6.16501C17.9987 6.00359 17.7917 5.90501 17.5762 5.88334C17.3487 5.87143 17.132 5.94834 16.9684 6.10001L12.0837 10C11.4553 10.5211 10.5551 10.5211 9.91699 10L5.04199 6.10001C4.70507 5.85084 4.23924 5.88334 3.95865 6.17584C3.66615 6.46834 3.63365 6.93418 3.88174 7.25918L4.02365 7.40001L8.95282 11.2458C9.55949 11.7225 10.2951 11.9825 11.0653 11.9825C11.8334 11.9825 12.582 11.7225 13.1876 11.2458L18.0745 7.33501Z" fill="#B3B3B3"/>
</svg>
