<svg width="24" height="24" viewBox="0 0 24 24" fill="none" xmlns="http://www.w3.org/2000/svg">
<g clip-path="url(#clip0_50_412)">
<path d="M16.4989 0C15.2194 0.0884995 13.7239 0.907495 12.8525 1.97399C12.0575 2.94148 11.4035 4.37847 11.6585 5.77497C13.0565 5.81847 14.5009 4.97997 15.3379 3.89548C16.1209 2.88598 16.7134 1.45799 16.4989 0Z" fill="white"/>
<path d="M21.5553 8.05216C20.3268 6.51167 18.6003 5.61768 16.9698 5.61768C14.8173 5.61768 13.9068 6.64817 12.4113 6.64817C10.8693 6.64817 9.69783 5.62068 7.83634 5.62068C6.00785 5.62068 4.06086 6.73817 2.82637 8.64916C1.09088 11.3401 1.38788 16.3996 4.20036 20.7091C5.20686 22.2511 6.55085 23.9851 8.30884 24.0001C9.87333 24.0151 10.3143 22.9966 12.4338 22.9861C14.5533 22.9741 14.9553 24.0136 16.5168 23.9971C18.2763 23.9836 19.6938 22.0621 20.7003 20.5201C21.4218 19.4146 21.6903 18.8581 22.2498 17.6101C18.1803 16.0606 17.5278 10.2736 21.5553 8.05216Z" fill="white"/>
</g>
<defs>
<clipPath id="clip0_50_412">
<rect width="24" height="24" fill="white"/>
</clipPath>
</defs>
</svg>
