<svg width="20" height="20" viewBox="0 0 20 20" fill="none" xmlns="http://www.w3.org/2000/svg">
<path d="M15.6527 12.1816C15.037 12.0491 14.5499 12.335 14.1186 12.5847C13.6769 12.842 12.837 13.5233 12.3556 13.3489C9.89079 12.3341 7.57258 10.1767 6.56907 7.70199C6.3922 7.2103 7.07035 6.36507 7.32572 5.91816C7.57353 5.48554 7.85349 4.99385 7.72581 4.37351C7.61042 3.81606 6.11791 1.91692 5.59015 1.39759C5.24208 1.05455 4.88551 0.865871 4.51948 0.835378C3.14331 0.776298 1.60635 2.61254 1.33679 3.05183C0.661479 3.98853 0.665263 5.23493 1.34814 6.74623C2.99387 10.8056 9.21831 16.9318 13.2929 18.6394C14.0448 18.991 14.7324 19.1673 15.3501 19.1673C15.9544 19.1673 16.4926 18.9987 16.9551 18.6642C17.3041 18.4631 19.2156 16.8499 19.1655 15.4367C19.1352 15.0765 18.947 14.7163 18.6084 14.3675C18.0929 13.8349 16.206 12.2978 15.6527 12.1816" fill="#2ECC71"/>
</svg>
