<svg width="22" height="22" viewBox="0 0 22 22" fill="none" xmlns="http://www.w3.org/2000/svg">
<path fill-rule="evenodd" clip-rule="evenodd" d="M8.59503 18.3589L16.6492 7.94332C17.0869 7.38165 17.2426 6.73227 17.0967 6.07107C16.9702 5.46999 16.6006 4.89846 16.0461 4.46489L14.694 3.39081C13.517 2.45469 12.0579 2.55323 11.2214 3.6273L10.3168 4.8009C10.2 4.94773 10.2292 5.16451 10.3751 5.28276C10.3751 5.28276 12.661 7.11559 12.7097 7.155C12.8653 7.30281 12.982 7.49989 13.0112 7.73639C13.0599 8.19952 12.7389 8.63309 12.2622 8.69222C12.0385 8.72178 11.8245 8.6528 11.6689 8.5247L9.26621 6.61304C9.14949 6.52534 8.9744 6.54406 8.87712 6.66231L3.16721 14.0527C2.79757 14.5159 2.67112 15.117 2.79757 15.6984L3.52712 18.8615C3.56603 19.029 3.71194 19.1472 3.88703 19.1472L7.09703 19.1078C7.68067 19.098 8.22539 18.8319 8.59503 18.3589ZM13.0897 17.3738H18.3239C18.8346 17.3738 19.25 17.7946 19.25 18.3119C19.25 18.8302 18.8346 19.25 18.3239 19.25H13.0897C12.579 19.25 12.1636 18.8302 12.1636 18.3119C12.1636 17.7946 12.579 17.3738 13.0897 17.3738Z" fill="white"/>
</svg>
