<svg width="17" height="17" viewBox="0 0 25 17" fill="none" xmlns="http://www.w3.org/2000/svg">
<rect width="25" height="16.6667" rx="2" fill="#2ECC71"/>
<path d="M14.3518 12.0371C15.1188 12.0371 15.7407 11.4152 15.7407 10.6482C15.7407 9.8811 15.1188 9.25928 14.3518 9.25928C13.5847 9.25928 12.9629 9.8811 12.9629 10.6482C12.9629 11.4152 13.5847 12.0371 14.3518 12.0371Z" fill="white"/>
<path d="M18.0556 12.0371C18.8227 12.0371 19.4445 11.4152 19.4445 10.6482C19.4445 9.8811 18.8227 9.25928 18.0556 9.25928C17.2886 9.25928 16.6667 9.8811 16.6667 10.6482C16.6667 11.4152 17.2886 12.0371 18.0556 12.0371Z" fill="white"/>
<path d="M10.6482 12.0371C11.4152 12.0371 12.0371 11.4152 12.0371 10.6482C12.0371 9.8811 11.4152 9.25928 10.6482 9.25928C9.8811 9.25928 9.25928 9.8811 9.25928 10.6482C9.25928 11.4152 9.8811 12.0371 10.6482 12.0371Z" fill="white"/>
<path d="M6.94455 12.0371C7.71161 12.0371 8.33344 11.4152 8.33344 10.6482C8.33344 9.8811 7.71161 9.25928 6.94455 9.25928C6.17749 9.25928 5.55566 9.8811 5.55566 10.6482C5.55566 11.4152 6.17749 12.0371 6.94455 12.0371Z" fill="white"/>
<path d="M6.66678 6.48125H18.3334C18.9471 6.48125 19.4446 6.06671 19.4446 5.55532C19.4446 5.04393 18.9471 4.62939 18.3334 4.62939H6.66678C6.05311 4.62939 5.55566 5.04393 5.55566 5.55532C5.55566 6.06671 6.05311 6.48125 6.66678 6.48125Z" fill="white"/>
</svg>
