<svg width="22" height="22" viewBox="0 0 22 22" fill="none" xmlns="http://www.w3.org/2000/svg">
<path fill-rule="evenodd" clip-rule="evenodd" d="M16.0625 6.77983V8.1854C17.6413 8.67821 18.7916 10.1075 18.7916 11.8145V16.34C18.7916 18.4534 17.0396 20.1668 14.8795 20.1668H7.12138C4.96039 20.1668 3.20831 18.4534 3.20831 16.34V11.8145C3.20831 10.1075 4.3596 8.67821 5.93749 8.1854V6.77983C5.94681 4.04705 8.21026 1.8335 10.986 1.8335C13.799 1.8335 16.0625 4.04705 16.0625 6.77983ZM11.0046 3.42762C12.8955 3.42762 14.4324 4.93066 14.4324 6.77984V7.98773H7.56752V6.76162C7.57684 4.92155 9.11375 3.42762 11.0046 3.42762ZM11.815 15.0839C11.815 15.5302 11.4517 15.8855 10.9953 15.8855C10.5482 15.8855 10.1849 15.5302 10.1849 15.0839V13.0616C10.1849 12.6243 10.5482 12.2691 10.9953 12.2691C11.4517 12.2691 11.815 12.6243 11.815 13.0616V15.0839Z" fill="#2ECC71"/>
</svg>
