<svg width="20" height="18" viewBox="0 0 20 18" fill="none" xmlns="http://www.w3.org/2000/svg">
<path fill-rule="evenodd" clip-rule="evenodd" d="M14.5278 0.75C15.7571 0.75 16.9396 1.23583 17.8095 2.10758C18.6803 2.9775 19.1671 4.15083 19.1671 5.37917V12.6208C19.1671 15.1783 17.0862 17.25 14.5278 17.25H5.47207C2.91366 17.25 0.83374 15.1783 0.83374 12.6208V5.37917C0.83374 2.82167 2.90449 0.75 5.47207 0.75H14.5278ZM15.9863 6.745L16.0596 6.67167C16.2787 6.40583 16.2787 6.02083 16.0495 5.755C15.9221 5.61842 15.747 5.535 15.5646 5.51667C15.3721 5.50658 15.1888 5.57167 15.0503 5.7L10.9171 9C10.3854 9.44092 9.62367 9.44092 9.08376 9L4.95876 5.7C4.67367 5.48917 4.27951 5.51667 4.04209 5.76417C3.79459 6.01167 3.76709 6.40583 3.97701 6.68083L4.09709 6.8L8.26792 10.0542C8.78126 10.4575 9.40367 10.6775 10.0554 10.6775C10.7053 10.6775 11.3388 10.4575 11.8512 10.0542L15.9863 6.745Z" fill="#2ECC71"/>
</svg>
